<?xml version="1.0" encoding="utf-8"?>
<!-- Generator: Adobe Illustrator 25.0.1, SVG Export Plug-In . SVG Version: 6.00 Build 0)  -->
<svg version="1.1" id="Шар_1" xmlns="http://www.w3.org/2000/svg" xmlns:xlink="http://www.w3.org/1999/xlink" x="0px" y="0px"
	 viewBox="0 0 1300 1300" style="enable-background:new 0 0 1300 1300;" xml:space="preserve">
<style type="text/css">
	.st0{display:none;}
	.st1{display:inline;}
	.st2{fill:#FFFFFF;}
	.st3{display:none;opacity:5.000000e-02;}
	.st4{fill:none;}
	.st5{fill:#E53212;}
</style>
<rect width="1300" height="1300"/>
<g id="Шар_2_1_" class="st0">
	<g class="st1">
		<path class="st2" d="M2081.8-650.3l-4.6,23.8l-11.9,0.5v-217.1h-74.5l0.6,69.5c1.8,138.2,1.3,142.5,1.2,142.6l48.6,47H2230
			l47-66.2H2081.8z"/>
		<polygon class="st2" points="2585.6,-844.7 2459.9,-844.7 2459.9,-684.6 2441.6,-650.9 2402.8,-650.9 2377.5,-684.6 
			2375.6,-843.4 2244.2,-843.4 2293.9,-770.2 2294.4,-652.2 2245.6,-584.1 2503.3,-584.1 2537.9,-649.3 2537.9,-770.2 		"/>
		<path class="st2" d="M2081.2-747.4l0.5,73.5h195.5l0-73.5h-64.2C2084.2-747,2081.3-747.4,2081.2-747.4z"/>
		<path class="st2" d="M2277.3-770.2l-51.1-73.2c-133.9,0-145.3,0-145.3,0l0.9,73.2H2277.3z"/>
	</g>
</g>
<g class="st3">
	<g class="st1">
		<path class="st4" d="M2221.3-541.8c2,2.2,5.9,2.7,8.7,1.1c2.8-1.6,3.4-4.6,1.4-6.8c-2-2.2-5.9-2.7-8.7-1.1c0,0,0,0,0,0
			c0,0,0,0,0,0C2220-547,2219.3-543.9,2221.3-541.8z"/>
		<path class="st4" d="M2118.8-775.7c1.6,2.4,5.4,3.3,8.4,2c3-1.2,4.2-4.2,2.6-6.6c-1.6-2.4-5.4-3.3-8.4-2
			C2118.4-781,2117.2-778.1,2118.8-775.7z"/>
		<path class="st4" d="M2176.3-893.2c0.2,0.4,0.3,0.6,0.4,0.7C2176.6-892.6,2176.5-892.9,2176.3-893.2c1.3,2.5,4.9,3.7,8.1,2.7
			c3.2-1,4.7-3.9,3.4-6.3c-1.3-2.5-4.9-3.7-8.1-2.7C2176.5-898.5,2175-895.7,2176.3-893.2z"/>
		<path class="st4" d="M2176.3-893.2C2176-893.8,2175.7-894.4,2176.3-893.2L2176.3-893.2z"/>
		<path class="st4" d="M2594.2-720.5c-3.4,0-6.2,2.2-6.2,4.9c0,2.7,2.8,4.9,6.2,4.9c3.4,0,6.2-2.2,6.2-4.9
			C2600.4-718.3,2597.6-720.5,2594.2-720.5z"/>
		<path class="st4" d="M2550.1-559.9c2.9,1.5,6.7,0.8,8.6-1.4c1.9-2.2,1.1-5.3-1.8-6.7c-2.8-1.5-6.7-0.9-8.6,1.4c0,0,0,0,0,0.1
			C2546.5-564.4,2547.3-561.4,2550.1-559.9z"/>
		<path class="st4" d="M2591.6-668.8c0-2.7-2.8-4.9-6.2-4.9c-3.4,0-6.2,2.2-6.2,4.9c0,2.7,2.8,4.9,6.2,4.9
			C2588.8-663.9,2591.6-666.1,2591.6-668.8z"/>
		<path class="st4" d="M2053.3-923.1L2053.3-923.1C2053.3-923.7,2053.3-924.4,2053.3-923.1z"/>
		<path class="st4" d="M2059.4-928c-3.4,0-6.2,2.2-6.1,4.9c0,0,0,0,0,0s0,0,0,0c0,1.3,0,0.7,0,0c0.1,2.7,2.9,4.8,6.3,4.8
			c3.4,0,6.2-2.2,6.1-4.9C2065.7-925.9,2062.9-928,2059.4-928z"/>
		<path class="st4" d="M2171.1-558.4c2.8,1.6,6.7,1.1,8.7-1c2-2.2,1.4-5.2-1.3-6.8c-2.8-1.6-6.6-1.1-8.7,1c0,0,0,0,0,0c0,0,0,0,0,0
			C2167.8-563,2168.4-559.9,2171.1-558.4z"/>
		<path class="st4" d="M2136-555.6c0-2.7-2.8-4.9-6.2-4.9c-3.4,0-6.2,2.2-6.2,4.9c0,2.7,2.8,4.9,6.2,4.9
			C2133.3-550.8,2136-552.9,2136-555.6z"/>
		<path class="st4" d="M2030.1-828.6c2.8,1.6,6.7,1.1,8.7-1.1c2-2.2,1.4-5.2-1.4-6.8c0,0,0,0,0,0c0,0,0,0,0,0
			c-2.8-1.5-6.6-1-8.6,1.1C2026.6-833.2,2027.3-830.2,2030.1-828.6z"/>
		<path class="st4" d="M2412.2-623.5c-2.9-1.5-6.7-0.8-8.6,1.4c-1.9,2.2-1.1,5.3,1.8,6.7c2.9,1.5,6.7,0.8,8.6-1.4c0,0,0,0,0,0
			c0,0,0,0,0.1-0.1C2415.8-619.1,2415-622.1,2412.2-623.5z"/>
		<path class="st4" d="M2330.2-689.7c1.9,2.2,5.8,2.8,8.6,1.3c2.8-1.5,3.6-4.5,1.7-6.7c-1.9-2.2-5.8-2.8-8.6-1.3
			C2329.1-695,2328.3-692,2330.2-689.7z"/>
		<path class="st4" d="M2314-595c3,1.3,6.8,0.4,8.4-2c1.6-2.4,0.4-5.3-2.6-6.6c-3-1.3-6.8-0.4-8.4,2
			C2309.8-599.2,2311-596.3,2314-595z"/>
		<path class="st4" d="M2477-475.7c-3-1.2-6.8-0.3-8.4,2c-1.6,2.4-0.4,5.3,2.6,6.6c3,1.3,6.8,0.3,8.4-2
			C2481.2-471.5,2480.1-474.4,2477-475.7z"/>
		<path class="st4" d="M2316.8-652.3c3.4,0,6.2-2.2,6.2-4.9c0-2.7-2.8-4.9-6.2-4.9c-3.4,0-6.2,2.2-6.2,4.9
			C2310.6-654.4,2313.4-652.3,2316.8-652.3z"/>
		<path class="st4" d="M2240.9-510.8c-2.9-1.5-6.7-0.8-8.6,1.4c-1.9,2.2-1.1,5.3,1.8,6.7c2.9,1.5,6.7,0.9,8.6-1.4c0,0,0,0,0,0
			C2244.6-506.3,2243.8-509.3,2240.9-510.8z"/>
		<path class="st4" d="M2258.6-454c0-2.7-2.7-4.9-6.1-4.9c-3.4,0-6.2,2.1-6.3,4.8c0,2.7,2.7,4.9,6.1,4.9
			C2255.7-449.2,2258.5-451.4,2258.6-454z"/>
		<path class="st4" d="M2380.6-480.5c1.3-2.5-0.2-5.3-3.4-6.3c-3.2-1-6.8,0.2-8.1,2.7c-1.3,2.5,0.2,5.3,3.4,6.3
			C2375.7-476.8,2379.3-478,2380.6-480.5z"/>
		<path class="st4" d="M2410.4-590.1c-1.3,2.5,0.2,5.3,3.4,6.3c3.2,1,6.8-0.2,8.1-2.7c1.3-2.5-0.2-5.3-3.4-6.3
			C2415.3-593.8,2411.7-592.6,2410.4-590.1z"/>
		<path class="st4" d="M2532.5-616.6c0,2.7,2.7,4.9,6.1,4.9c3.4,0,6.2-2.1,6.3-4.8c0-2.7-2.7-4.9-6.1-4.9
			C2535.3-621.4,2532.5-619.3,2532.5-616.6z"/>
		<path class="st4" d="M2451.3-658.6c3.4,0,6.2-2.2,6.2-4.9c0-2.7-2.8-4.9-6.2-4.9c-3.4,0-6.2,2.2-6.2,4.9
			C2445.1-660.8,2447.9-658.6,2451.3-658.6z"/>
		<path class="st4" d="M2396.9-690c1.9,2.2,5.8,2.8,8.6,1.3c2.8-1.5,3.6-4.5,1.7-6.7c-1.9-2.2-5.8-2.8-8.6-1.3
			C2395.8-695.3,2395-692.3,2396.9-690z"/>
		<path class="st4" d="M2033.9-615.9c-2.8-1.5-6.7-0.9-8.6,1.3c0,0,0,0,0,0c-1.9,2.2-1.1,5.2,1.8,6.7c2.8,1.5,6.7,0.9,8.6-1.3
			C2037.6-611.4,2036.8-614.4,2033.9-615.9z"/>
		<path class="st4" d="M1938.7-1004.4c3.4,0,6.2-2.2,6.2-4.9c0-2.7-2.8-4.9-6.2-4.9c-3.4,0-6.2,2.2-6.2,4.9
			C1932.4-1006.6,1935.2-1004.4,1938.7-1004.4z"/>
		<path class="st4" d="M1977.1-812c2,2.2,5.9,2.6,8.7,1c2.8-1.6,3.3-4.6,1.3-6.8c-2-2.2-5.9-2.6-8.7-1
			C1975.7-817.2,1975.1-814.1,1977.1-812z"/>
		<path class="st4" d="M2204.8-1014.3c3,1.2,6.8,0.3,8.4-2c1.6-2.4,0.4-5.3-2.6-6.6c-3-1.3-6.8-0.3-8.4,2
			C2200.6-1018.5,2201.8-1015.5,2204.8-1014.3z"/>
		<path class="st4" d="M2236-1000.7c-1.9-2.2-5.7-2.9-8.6-1.4c-2.9,1.5-3.7,4.5-1.8,6.7c1.9,2.2,5.7,2.9,8.6,1.4
			C2237.1-995.5,2237.9-998.5,2236-1000.7z"/>
		<path class="st4" d="M1919.9-454C1919.8-455.3,1919.9-454.7,1919.9-454L1919.9-454z"/>
		<path class="st4" d="M1919.9-454C1919.9-453.3,1919.9-452.7,1919.9-454c-0.1-2.7-2.9-4.8-6.3-4.8c-3.4,0-6.2,2.2-6.1,4.9
			c0,2.7,2.9,4.8,6.3,4.8C1917.2-449.1,1919.9-451.3,1919.9-454z"/>
		<path class="st4" d="M2069.9-1045.4c-1.6,2.4-0.4,5.3,2.6,6.6c3,1.3,6.8,0.3,8.4-2c1.6-2.4,0.4-5.3-2.6-6.6
			C2075.2-1048.7,2071.5-1047.8,2069.9-1045.4z"/>
		<path class="st4" d="M2569.7-528.9c-2-2.2-5.9-2.7-8.7-1.1c-2.8,1.6-3.4,4.6-1.4,6.8c2,2.2,5.9,2.7,8.7,1.1
			c-0.2,0.1-0.5,0.3-0.6,0.3c0.1-0.1,0.3-0.2,0.6-0.3c0,0,0,0,0,0C2571.1-523.7,2571.7-526.7,2569.7-528.9z"/>
		<path class="st4" d="M1911.1-834.3c2.1,2.2,5.9,2.6,8.7,1c2.7-1.6,3.3-4.7,1.2-6.8c-2.1-2.2-5.9-2.6-8.7-1
			C1909.7-839.5,1909.1-836.4,1911.1-834.3z"/>
		<path class="st4" d="M1947.7-762.3C1947.3-761.9,1947.1-761.5,1947.7-762.3L1947.7-762.3z"/>
		<path class="st4" d="M1923.3-503.9c1.9,2.2,5.7,2.9,8.6,1.4c2.9-1.5,3.7-4.5,1.8-6.7c0.5,0.6,0.9,1.1,0,0
			c-1.9-2.2-5.7-2.9-8.6-1.4C1922.2-509.1,1921.4-506.1,1923.3-503.9z"/>
		<path class="st4" d="M1939.2-761.1c2.8,1.5,6.7,0.9,8.6-1.3c0,0,0,0,0,0c1.9-2.2,1.1-5.2-1.7-6.7c-2.8-1.5-6.7-0.9-8.6,1.3
			C1935.6-765.6,1936.4-762.6,1939.2-761.1z"/>
		<path class="st4" d="M2208.8-718.8c3,1.2,6.8,0.3,8.4-2c1.6-2.4,0.4-5.3-2.6-6.6c-3-1.3-6.8-0.3-8.4,2
			C2204.6-723,2205.8-720.1,2208.8-718.8z"/>
		<path class="st4" d="M2018.9-975.3c0-2.7-2.8-4.9-6.2-4.9c-3.4,0-6.2,2.2-6.2,4.9c0,2.7,2.8,4.9,6.2,4.9
			C2016.1-970.4,2018.9-972.6,2018.9-975.3z"/>
		<path class="st4" d="M2130.1-609.2c1.9,2.2,5.8,2.8,8.6,1.3c2.9-1.5,3.6-4.5,1.7-6.7c-1.9-2.2-5.8-2.8-8.6-1.3
			C2129-614.5,2128.2-611.5,2130.1-609.2z"/>
		<path class="st4" d="M2209.6-659.7c0,2.7,2.8,4.9,6.2,4.9c3.4,0,6.2-2.2,6.2-4.9c0-2.7-2.8-4.9-6.2-4.9
			C2212.4-664.5,2209.6-662.4,2209.6-659.7z"/>
		<path class="st4" d="M2062-542.7c-2.1-2.2-5.9-2.6-8.7-1c-2.7,1.6-3.3,4.7-1.3,6.8c2.1,2.2,6,2.6,8.7,1
			C2063.5-537.6,2064.1-540.6,2062-542.7z"/>
		<path class="st4" d="M2049.9-873.2c-1.9-2.2-5.7-2.9-8.6-1.4c-2.9,1.5-3.7,4.5-1.8,6.7c1.9,2.2,5.7,2.9,8.6,1.4
			C2051-867.9,2051.8-870.9,2049.9-873.2z"/>
		<path class="st4" d="M2213.6-886c-2.8-1.5-6.7-0.9-8.6,1.3c0,0,0,0-0.1,0.1c-1.8,2.2-1,5.2,1.8,6.7c2.9,1.5,6.7,0.9,8.6-1.3
			C2217.2-881.5,2216.4-884.5,2213.6-886z"/>
		<path class="st4" d="M2187.6-939.4c-3.4,0-6.2,2.2-6.2,4.9c0,2.7,2.8,4.9,6.2,4.9c3.4,0,6.2-2.2,6.2-4.9
			C2193.8-937.3,2191-939.4,2187.6-939.4z"/>
		<path class="st4" d="M1996-565.1c-2-2.2-5.9-2.6-8.7-1c-2.8,1.6-3.4,4.6-1.3,6.8c2,2.2,5.9,2.6,8.7,1
			C1997.5-559.9,1998.1-562.9,1996-565.1z"/>
		<path class="st4" d="M1943.1-548.4c-2.8-1.6-6.7-1.1-8.7,1.1c-2,2.2-1.4,5.2,1.4,6.8c0,0,0,0,0.1,0c0,0,0,0,0,0
			c2.8,1.5,6.7,1,8.6-1.1C1946.6-543.8,1945.9-546.8,1943.1-548.4z"/>
		<path class="st4" d="M2217.1-773.9c-2.8-1.5-6.7-0.9-8.6,1.3c-1.9,2.2-1.1,5.3,1.7,6.8c2.9,1.5,6.7,0.9,8.6-1.4
			C2220.7-769.4,2219.9-772.4,2217.1-773.9z"/>
		<path class="st4" d="M2208.4-772.6C2208.9-773.1,2209.4-773.7,2208.4-772.6L2208.4-772.6z"/>
		<path class="st4" d="M2025-614.2C2024.6-613.8,2024.8-613.9,2025-614.2L2025-614.2z"/>
		<path class="st4" d="M2390-1054.1C2390-1054.1,2390-1054.1,2390-1054.1C2390-1054.1,2390.1-1054.1,2390-1054.1
			c2.1,2.2,5.9,2.7,8.7,1.1c2.8-1.6,3.4-4.6,1.4-6.8c-2-2.2-5.9-2.7-8.7-1.1C2388.7-1059.3,2388-1056.3,2390-1054.1z"/>
		<path class="st4" d="M2303.9-982.9c1.9,2.2,5.8,2.8,8.6,1.3c2.8-1.5,3.6-4.5,1.7-6.7c-1.9-2.2-5.8-2.8-8.6-1.3
			C2302.8-988.1,2302-985.1,2303.9-982.9z"/>
		<path class="st4" d="M2367.6-869.8c2,2.2,5.9,2.6,8.7,1c2.8-1.6,3.4-4.6,1.3-6.8c-2-2.2-5.9-2.6-8.7-1
			C2366.2-875,2365.6-871.9,2367.6-869.8z"/>
		<path class="st4" d="M2670.1-665.3c-2.8-1.5-6.7-0.9-8.6,1.3c0,0,0,0,0,0c0,0,0,0,0,0c-1.9,2.2-1.1,5.2,1.7,6.7
			c2.8,1.5,6.7,0.9,8.6-1.3C2673.7-660.8,2672.9-663.9,2670.1-665.3z"/>
		<path class="st4" d="M2305.7-899.5C2305.7-899.5,2305.7-899.5,2305.7-899.5c2.9,1.5,6.7,0.9,8.6-1.3c1.9-2.2,1.1-5.3-1.7-6.7
			c-2.9-1.5-6.7-0.9-8.6,1.3C2302.1-904,2302.9-901,2305.7-899.5z"/>
		<path class="st4" d="M2368.4-1012.9c-0.2-0.1-0.3-0.2-0.3-0.2C2368.1-1013.1,2368.2-1013,2368.4-1012.9z"/>
		<path class="st4" d="M2273.5-676.1c0,2.7,2.8,4.9,6.2,4.9c3.4,0,6.2-2.2,6.2-4.9c0-2.7-2.8-4.9-6.2-4.9
			C2276.3-681,2273.5-678.8,2273.5-676.1z"/>
		<path class="st4" d="M2305.7-899.5C2305-899.9,2304.3-900.2,2305.7-899.5L2305.7-899.5z"/>
		<path class="st4" d="M2381-986.2c-3.4,0-6.2,2.2-6.2,4.9c0,2.7,2.8,4.9,6.2,4.9c3.4,0,6.2-2.2,6.2-4.9
			C2387.2-984,2384.4-986.2,2381-986.2z"/>
		<path class="st4" d="M2595.8-987.6c-3.4,0-6.2,2.2-6.2,4.9c0,2.7,2.8,4.9,6.2,4.9c3.4,0,6.2-2.2,6.2-4.9
			C2602-985.4,2599.2-987.6,2595.8-987.6z"/>
		<path class="st4" d="M2577.3-1035.8c3.4,0,6.2-2.2,6.2-4.9c0-2.7-2.8-4.9-6.2-4.9c-3.4,0-6.2,2.2-6.2,4.9
			C2571.1-1038,2573.9-1035.8,2577.3-1035.8z"/>
		<path class="st4" d="M2406.1-927.2c-2.1-2.1-6-2.6-8.7-1c-2.7,1.6-3.3,4.7-1.2,6.8c2.1,2.2,6,2.6,8.7,1
			C2407.6-922,2408.2-925.1,2406.1-927.2z"/>
		<path class="st4" d="M2368.8-1012.6C2370.2-1011.8,2369.5-1012.2,2368.8-1012.6L2368.8-1012.6z"/>
		<path class="st4" d="M2620.8-911.5c-3.4,0-6.2,2.2-6.2,4.9c0,2.7,2.8,4.9,6.2,4.9c3.4,0,6.2-2.2,6.2-4.9
			C2627-909.4,2624.2-911.5,2620.8-911.5z"/>
		<path class="st4" d="M2367.5-1019.4c-2,2.2-1.4,5.2,1.3,6.8c0,0,0,0,0,0c2.8,1.6,6.7,1.1,8.7-1c2-2.2,1.4-5.2-1.3-6.8
			C2373.4-1022.1,2369.5-1021.6,2367.5-1019.4z"/>
		<path class="st4" d="M2322.6-765.6c-3,1.3-4.2,4.2-2.6,6.6c1.6,2.4,5.4,3.3,8.4,2c3-1.3,4.2-4.2,2.6-6.6
			C2329.4-765.9,2325.7-766.8,2322.6-765.6z"/>
		<path class="st4" d="M2510.8-816.9C2510.8-816.9,2510.8-816.9,2510.8-816.9C2510.8-816.9,2510.8-816.9,2510.8-816.9
			c-3.4,0-6.2,2.2-6.1,4.9c0,2.7,2.9,4.8,6.3,4.8c3.4,0,6.2-2.2,6.1-4.9C2517-814.8,2514.2-816.9,2510.8-816.9z"/>
		<path class="st4" d="M2472.6-720.6c-0.1,0-0.2,0.1-0.2,0.1C2472.4-720.5,2472.5-720.5,2472.6-720.6c-3.2,1-4.7,3.9-3.4,6.3
			c1.3,2.5,4.9,3.7,8.1,2.7c3.2-1,4.7-3.9,3.4-6.3C2479.4-720.4,2475.8-721.6,2472.6-720.6z"/>
		<path class="st4" d="M2398.9-836.2c-2.8-1.6-6.7-1.1-8.7,1.1c-2,2.2-1.3,5.2,1.4,6.8c2.8,1.6,6.6,1.1,8.6-1.1c0,0,0,0,0,0
			c0,0,0,0,0.1-0.1C2402.3-831.7,2401.6-834.7,2398.9-836.2z"/>
		<path class="st4" d="M2440.3-827.7c-0.3,0.2-0.5,0.3-0.6,0.3C2439.8-827.4,2440-827.5,2440.3-827.7z"/>
		<path class="st4" d="M2630.6-436.7C2630.6-436.7,2630.6-436.7,2630.6-436.7C2630.6-436.7,2630.6-436.7,2630.6-436.7
			c-2.9-1.5-6.8-0.9-8.7,1.3c-1.9,2.2-1.1,5.3,1.7,6.7c2.8,1.5,6.7,0.9,8.6-1.4C2634.2-432.2,2633.4-435.2,2630.6-436.7z"/>
		<path class="st4" d="M2472.6-720.6C2473.4-720.8,2474.2-721.1,2472.6-720.6L2472.6-720.6z"/>
		<path class="st4" d="M2623.6-517.5c-2.8,1.5-3.6,4.5-1.7,6.7c1.9,2.2,5.8,2.8,8.6,1.3c2.8-1.5,3.6-4.5,1.7-6.7
			C2630.4-518.4,2626.5-519,2623.6-517.5z"/>
		<path class="st4" d="M2641.3-555.9c2.9,1.5,6.7,0.9,8.6-1.3c1.9-2.2,1.1-5.3-1.7-6.8c-2.8-1.5-6.7-0.9-8.6,1.3
			C2637.7-560.4,2638.5-557.4,2641.3-555.9z"/>
		<path class="st4" d="M2447.1-819.5c2.9-1.5,3.7-4.5,1.8-6.7c-1.9-2.2-5.7-2.9-8.6-1.4c-2.9,1.5-3.7,4.5-1.8,6.7
			C2440.4-818.7,2444.2-818.1,2447.1-819.5z"/>
		<path class="st4" d="M2630.9-436.6C2631.4-436.3,2631.7-436.1,2630.9-436.6L2630.9-436.6z"/>
		<path class="st4" d="M2440.3-827.7C2441-828,2441.7-828.4,2440.3-827.7L2440.3-827.7z"/>
		<path class="st4" d="M2556.5-764.1c-3.4,0-6.2,2.2-6.2,4.9c0,2.7,2.8,4.9,6.2,4.9c3.4,0,6.2-2.2,6.2-4.9
			C2562.7-761.9,2559.9-764.1,2556.5-764.1z"/>
		<path class="st4" d="M2510.8-816.9C2510.8-816.9,2510.8-816.9,2510.8-816.9C2510.8-816.9,2510.8-816.9,2510.8-816.9
			C2510.8-816.9,2510.8-816.9,2510.8-816.9z"/>
		<path class="st4" d="M2604.8-535.2c-3.4,0-6.2,2.2-6.2,4.9c0,2.7,2.8,4.9,6.2,4.9c3.4,0,6.2-2.2,6.2-4.9
			C2611-533,2608.3-535.2,2604.8-535.2z"/>
		<path class="st5" d="M2561.1-942.1l118.2,0.5v-3l-120.6-0.5l-7.4,11.3c1.4,0.1,2.7,0.2,4.1,0.3L2561.1-942.1z"/>
		<path class="st5" d="M2551.4-933.8l-27.8,42.2l-152.4,0.1l-60.7,34.9l0,46.5l-29.1,10.5l-18.2,0c-0.8-2.4-3.6-4.1-6.9-4.1
			c-3.9,0-7.2,2.5-7.2,5.6c0,3.1,3.2,5.6,7.2,5.6c3.3,0,6.1-1.7,6.9-4.1l19.1,0l32.1-11.6l0-46.9l58.2-33.4l153.5-0.1l29.5-44.9
			C2554.1-933.6,2552.7-933.7,2551.4-933.8z"/>
		<path class="st5" d="M2679.4-930.3v-3l-112.4-0.5l-0.6,0.8l-0.2,0.4c7.7,0.6,15.3,1.3,23,1.9L2679.4-930.3z"/>
		<path class="st5" d="M2650.4-874.8l-12.6-18.4l-92.9,0.1l24.4-37.6l19.9,0.1c-7.7-0.6-15.3-1.3-23-1.9l-27.5,42.3l96.9-0.1
			l12.6,18.4l21.3,0l10-8.1v-4.3l-11.6,9.4L2650.4-874.8z"/>
		<path class="st5" d="M2569.4-975.1c-3.9,0-7.2,2.5-7.2,5.6c0,3.1,3.2,5.6,7.2,5.6c3.3,0,6.1-1.7,6.9-4.1l103,0.5v-3l-103-0.5
			C2575.5-973.4,2572.7-975.1,2569.4-975.1z"/>
		<path class="st5" d="M2659.3-1000.3c1.5-2.1,1.1-4.9-1.2-6.7c-2.8-2.2-7.4-2.1-10.1,0.1c-2.8,2.2-2.7,5.8,0.1,7.9
			c2.4,1.8,5.9,2.1,8.6,0.8l6,4.6l16.7,0.3v-3l-15.1-0.2L2659.3-1000.3z"/>
		<path class="st5" d="M2595.8-989.1c-4.5,0-8.1,2.9-8.1,6.4c0,3.5,3.6,6.4,8.1,6.4c3.8,0,7-2.1,7.9-4.9l75.7,0.5v-3l-75.7-0.5
			C2602.8-987,2599.6-989.1,2595.8-989.1z M2595.8-977.9c-3.4,0-6.2-2.2-6.2-4.9c0-2.7,2.8-4.9,6.2-4.9c3.4,0,6.2,2.2,6.2,4.9
			C2602-980.1,2599.2-977.9,2595.8-977.9z"/>
		<path class="st5" d="M2525.9-978.2l-26.6,0.1c-0.8-2.4-3.6-4.1-6.9-4.1c-4,0-7.2,2.5-7.1,5.6c0,3.1,3.2,5.6,7.2,5.6
			c3.3,0,6.1-1.8,6.9-4.1l28.5-0.1l18.7-19.1c-1.3-0.3-2.7-0.5-4-0.8L2525.9-978.2z"/>
		<path class="st5" d="M2534.3-967.7l-92.4,0l21.7-29.1l71,0c-4.9-1-9.7-2-14.6-3l-58.6,0l-23.9,32.1l-70.5,0
			c-0.8-2.4-3.6-4.1-6.9-4.1c-4,0-7.2,2.5-7.2,5.6c0,3.1,3.2,5.6,7.2,5.6c3.3,0,6.1-1.7,6.9-4.1l169.2-0.1l24.2-26.9
			c-1.3-0.3-2.6-0.5-4-0.8L2534.3-967.7z"/>
		<path class="st5" d="M2544-996.7l-1.5,1.6c1.3,0.3,2.7,0.5,4,0.8l5.2-5.4l-31.7,0c4.9,1,9.7,2,14.6,3L2544-996.7z"/>
		<path class="st5" d="M2632.2-1005.4l12.6-18.2l27.1,0l7.4,6v-4.3l-5.8-4.7l-31,0l-12.6,18.2l-108.5,0.1l-58.8-30.5l-108.6,0.1
			l-30.8-19.7l0-5.4h-3.8l0,6.8l33.3,21.3l108.8-0.1l58.9,30.5l47.9,0l-11.7,13c1.3,0.3,2.6,0.5,4,0.8l12.4-13.8L2632.2-1005.4z"/>
		<path class="st5" d="M1873.4-957.2l1,0.5l4.1,1.8l0.2,265.6c-3,0.6-5.3,2.8-5.3,5.4c0,3.1,3.2,5.6,7.2,5.6c4,0,7.2-2.5,7.2-5.6
			c0-2.6-2.2-4.7-5.3-5.4l-0.2-263.9l7,3l0.1,87.6l20.5,21.5c-2.3,2.2-2.6,5.5-0.3,7.9c2.7,2.8,7.8,3.4,11.4,1.3
			c3.6-2.1,4.3-6.1,1.6-8.9c-2.3-2.4-6.3-3.2-9.7-2l-19.8-20.7l-0.1-85l18.4,7.8l0.1,68c-3,0.7-5.3,2.8-5.3,5.4
			c0,3.1,3.2,5.6,7.2,5.6c4,0,7.2-2.5,7.2-5.6c0-2.6-2.2-4.7-5.3-5.4l-0.1-66.3l16.6,7l0.1,96.6l-25.4,25.2c-2.9-1-6.4-0.3-8.4,1.7
			c-2.4,2.4-1.9,6,1.2,7.9c3.1,1.9,7.6,1.5,10.1-0.9c2-2,2-4.8,0.2-6.8l26.3-26.1l-0.1-96l8.2,3.5l0.1,96.1l-51.9,60.2l0.1,63.4
			c-3,0.7-5.3,2.8-5.3,5.4c0,3.1,3.2,5.6,7.2,5.6c4,0,7.2-2.5,7.2-5.6c0-2.6-2.2-4.7-5.3-5.4l-0.1-62.5l48.1-55.8l0,10l-41,46.9
			l0.1,60.9l94.7,0l35.2,25.1c-1.4,2.2-0.9,4.9,1.6,6.7c2.9,2.1,7.5,1.9,10.1-0.4c2.7-2.3,2.5-5.8-0.5-7.9c-2.4-1.7-6-1.9-8.6-0.6
			l-36.3-25.9l-92.4,0l-0.1-56.9l41-46.9l-0.1-114.2l-70.5-29.9l0-3.3c-1.3,0-2.5,0-3.8,0L1873.4-957.2z M1912.4-841.1
			c2.7-1.6,6.6-1.2,8.7,1c2.1,2.1,1.5,5.2-1.2,6.8c-2.7,1.6-6.6,1.2-8.7-1C1909.1-836.4,1909.7-839.5,1912.4-841.1z"/>
		<path class="st5" d="M1874-1046.8l-0.6,84.6c1.3,0,2.5,0,3.8,0l0.6-85c-0.1,0-0.2,0-0.2,0C1876.3-1047.1,1875.1-1047,1874-1046.8z
			"/>
		<path class="st5" d="M1874.1-1063.8l-0.1,17.1c1.2-0.2,2.4-0.3,3.6-0.4c0.1,0,0.2,0,0.2,0l0.1-16.6H1874.1z"/>
		<path class="st5" d="M1967.7-930.6l39,46l0.1,85.2l27.2,26l36.8,0l14.8,21.6l24.7,0l12,12.7c-1.9,1.9-2.1,4.7-0.1,6.8
			c2.4,2.5,6.8,3,10,1.2c3.2-1.8,3.8-5.4,1.5-7.8c-2-2.1-5.4-2.8-8.3-1.9l-13.2-13.9l-24.3,0l-14.8-21.6l-37.3,0l-25.2-24.1
			l-0.1-85.1l-39-46.1l0-31.9c-1.3,0-2.5,0-3.8,0L1967.7-930.6z"/>
		<path class="st5" d="M1967.6-988.8l0,25.4c1.3,0,2.5,0,3.8,0l0-26C1970.1-989.2,1968.9-989,1967.6-988.8z"/>
		<path class="st5" d="M1967.6-1001.8c1.3-0.2,2.5-0.4,3.8-0.6l0-14l23.2-9.9l0-24.3l-12.7-9.7l0.2-3.5h-3.8l-0.2,4.7l12.7,9.7
			l0,21.2l-23.2,9.9L1967.6-1001.8z"/>
		<path class="st5" d="M1889.6-960.7l68.4,27.6l0.1,119.4l44.6,47.6l59.3,0l13.4,22.8l0,14.3c-3,0.7-5.3,2.8-5.3,5.4
			c0,3.1,3.2,5.6,7.2,5.6c4,0,7.2-2.5,7.2-5.6c0-2.6-2.2-4.7-5.3-5.4l0-14.9l-14.8-25.1l-59.8,0l-42.7-45.6l-0.1-120.2l-68-27.4
			c-1.4,0-2.8,0-4.2,0L1889.6-960.7z"/>
		<path class="st5" d="M1889.6-962.3c1.4,0,2.8,0,4.2,0l-0.4-0.2l0.6-85.4c-1.3,0.1-2.5,0.1-3.8,0.2L1889.6-962.3z"/>
		<path class="st5" d="M1890.3-1063.8l-0.1,16.1c1.3-0.1,2.5-0.1,3.8-0.2l0.1-15.9H1890.3z"/>
		<path class="st5" d="M1955.8-999.9c0.9-0.1,1.7-0.3,2.6-0.4c0.4-0.1,0.8-0.1,1.2-0.2l0-20.2l23.5-9.9l0-16.6l-12.3-9.3l0.3-7.2
			h-3.8l-0.3,8.5l12.3,9.3l0,13.6l-23.5,9.9L1955.8-999.9z"/>
		<path class="st5" d="M1908.1-994l0.5-69.8h-3.8l-0.5,70.1C1905.6-993.8,1906.8-993.9,1908.1-994z"/>
		<path class="st5" d="M1908-980.3h-3.8l-0.1,13.3l1,0.5l10,4c2.7,0,5.4-0.1,8.1-0.1l-15.3-6.1L1908-980.3z"/>
		<path class="st5" d="M1955.8-980.4l0,17.1c1.3,0,2.5,0,3.8,0l0-19.9C1958.9-981.6,1957.6-980.5,1955.8-980.4z"/>
		<path class="st5" d="M1955.9-949.8l-32.7-13c-2.7,0-5.4,0.1-8.1,0.1l44.6,17.7l0-18.4c-1.3,0-2.5,0-3.8,0L1955.9-949.8z"/>
		<path class="st5" d="M1983.2-1004.5l0-5.6l26.7,0l0.6,0.5c1.4-0.3,2.9-0.6,4.3-0.8l-3.3-2.6l-32.1,0l0,9.2
			C1980.6-1004.1,1981.9-1004.3,1983.2-1004.5z"/>
		<path class="st5" d="M2106.9-934.9l33.6,0.1l9.9,20.2c-2.5,1.5-3.6,4.1-2.4,6.5c1.4,2.9,5.6,4.3,9.2,3.2c3.7-1.1,5.5-4.4,4.1-7.2
			c-1.2-2.4-4.2-3.8-7.4-3.6l-10.8-22.1l-34.3-0.1l-19.8-22c-1.7-0.1-3.4-0.3-5.1-0.4L2106.9-934.9z"/>
		<path class="st5" d="M2040.9-989.6l-13-10.4c-1.4,0.3-2.9,0.6-4.3,0.8l15.7,12.5l20.7-0.1l23.9,26.5c1.7,0.1,3.4,0.3,5.1,0.4
			l-27-29.9L2040.9-989.6z"/>
		<path class="st5" d="M1979.4-990.8l0,27.3c1.3,0,2.5,0,3.8,0l0-28C1981.9-991.2,1980.6-991,1979.4-990.8z"/>
		<path class="st5" d="M1979.4-933.9L2017-888l0,47.9l9.2,5.1c-1.4,2.7-0.3,5.8,2.8,7.6c3.6,2,8.7,1.4,11.3-1.5
			c2.6-2.9,1.8-6.8-1.9-8.9c-3.1-1.7-7.2-1.5-10,0.4l-7.6-4.2l0-47.3l-37.5-45.9l0-28.7c-1.3,0-2.5,0-3.8,0L1979.4-933.9z
			 M2028.6-835.4c2-2.2,5.8-2.7,8.6-1.1c0,0,0,0,0,0c0,0,0,0,0,0c2.7,1.6,3.4,4.6,1.4,6.8c-2,2.2-5.9,2.7-8.7,1.1
			C2027.3-830.2,2026.6-833.2,2028.6-835.4z"/>
		<path class="st5" d="M2029.8-827C2030-826.8,2030.1-826.8,2029.8-827L2029.8-827z"/>
		<path class="st5" d="M2028.1-827.9C2027.8-828.1,2027.9-828,2028.1-827.9L2028.1-827.9z"/>
		<path class="st5" d="M2189.6-897.4C2191.3-894.2,2187.9-900.7,2189.6-897.4L2189.6-897.4z"/>
		<path class="st5" d="M2093.4-988.4c-2.2-2.6-6.6-3.3-9.9-1.6c-3.3,1.7-4.2,5.2-2.1,7.8c1.8,2.2,5.2,3,8.2,2.3l18.4,22
			c1.7,0.2,3.4,0.4,5.1,0.6l-20.2-24.2C2094.9-983.4,2095.2-986.2,2093.4-988.4z"/>
		<path class="st5" d="M2118.2-945.7l35.4,0l23.8,45.6c-3,1.7-4.2,4.8-2.8,7.6c1.7,3.2,6.4,4.8,10.6,3.5c4.1-1.3,6.1-5,4.4-8.3
			c-1.4-2.8-5.1-4.3-8.7-3.9l-24.7-47.5l-35.9,0l-7.2-8.6c-1.7-0.2-3.4-0.4-5.1-0.6L2118.2-945.7z M2187.8-896.8
			c1.3,2.5-0.2,5.3-3.4,6.3c-3.2,1-6.8-0.2-8.1-2.7c0.1,0.3,0.3,0.6,0.3,0.7c0-0.1-0.2-0.3-0.4-0.7c-0.6-1.2-0.3-0.6,0,0
			c-1.3-2.5,0.2-5.3,3.4-6.3C2182.9-900.5,2186.5-899.3,2187.8-896.8z"/>
		<path class="st5" d="M1923.8-995.6l0.6-68.2h-3.8l-0.6,68.6C1921.3-995.3,1922.5-995.5,1923.8-995.6z"/>
		<path class="st5" d="M1914.7-980.3c-0.1,0.3-0.1,0.5-0.1,0.8c0,3.1,3.2,5.6,7.2,5.6c4,0,7.2-2.5,7.2-5.6c0-0.3,0-0.5-0.1-0.8
			H1914.7z"/>
		<path class="st5" d="M2052.2-706.4c0,3.1,3.2,5.6,7.2,5.6c3.9,0,7.2-2.5,7.1-5.6c0-2.6-2.2-4.7-5.3-5.4l0-29.9l-9-17.7l-51.5,0
			l-47.2-48.4l-37.7,42.3l0,45.1l76.9,0c0.8,2.4,3.6,4.1,6.9,4.1c4,0,7.2-2.5,7.2-5.6c0-3.1-3.2-5.6-7.2-5.6c-3.3,0-6.1,1.8-6.9,4.1
			l-73.1,0l0-41.2l34-38.2l45.2,46.3l50.8,0l7.8,15.3l0,29.3C2054.4-711.1,2052.2-709,2052.2-706.4z"/>
		<path class="st5" d="M2026.1-741.7c0.8,2.4,3.6,4.1,6.9,4.1c4,0,7.2-2.5,7.2-5.6c0-3.1-3.2-5.6-7.2-5.6c-3.3,0-6.1,1.7-6.9,4.1
			l-31.3,0L1965-777c2-1.9,2.1-4.7,0.2-6.8c-2.3-2.5-6.8-3.1-10-1.3c-3.2,1.8-3.9,5.3-1.6,7.8c1.9,2.1,5.4,2.8,8.3,2l31,33.6
			L2026.1-741.7z"/>
		<path class="st5" d="M1986.6-850.8c0,3.1,3.2,5.6,7.2,5.6c4,0,7.2-2.5,7.2-5.6c0-2.6-2.2-4.7-5.3-5.4l0-26.7l-28.7-32.2l0.1,86.8
			l0.4,0.4l8.5,9.1c-2.3,2.2-2.5,5.4-0.3,7.8c-0.6-0.7-1.3-1.3,0,0c1.3,1.4,0.7,0.7,0,0c2.7,2.8,7.7,3.4,11.3,1.3
			c3.6-2.1,4.4-6.1,1.7-8.9c-2.3-2.4-6.3-3.2-9.7-2.1l-8.1-8.7l-0.1-76.3l21,23.7l0,25.8C1988.9-855.5,1986.6-853.4,1986.6-850.8z
			 M1978.5-818.8c2.8-1.6,6.7-1.1,8.7,1c2,2.2,1.4,5.2-1.3,6.8c-2.8,1.6-6.7,1.1-8.7-1C1975.1-814.1,1975.7-817.2,1978.5-818.8z"/>
		<path class="st5" d="M1959.3-1036.7c2.8,2.2,7.3,2.2,10.1,0.1c2.8-2.2,2.9-5.7,0.1-7.9c-2.3-1.8-5.8-2.2-8.6-1l-4.8-3.8l0.5-14.4
			h-3.8l-0.5,15.6l5.9,4.7C1956.7-1041.3,1957-1038.6,1959.3-1036.7z"/>
		<path class="st5" d="M1938.7-1002.9c4.5,0,8.1-2.9,8.1-6.4c0-3-2.7-5.5-6.2-6.2l0.7-48.4h-3.8l-0.7,48.4c-3.6,0.7-6.2,3.2-6.2,6.2
			C1930.6-1005.7,1934.2-1002.9,1938.7-1002.9z M1938.7-1014.1c3.4,0,6.2,2.2,6.2,4.9c0,2.7-2.8,4.9-6.2,4.9c-3.4,0-6.2-2.2-6.2-4.9
			C1932.4-1011.9,1935.2-1014.1,1938.7-1014.1z"/>
		<path class="st5" d="M1991.8-993l0,29.5c1.3,0,2.5,0,3.8,0l0-30.3C1994.3-993.5,1993-993.3,1991.8-993z"/>
		<path class="st5" d="M1991.8-941.8l39.4,50.5l18.6,0l27.4,31.2c-2,1.9-2.3,4.7-0.4,6.8c2.2,2.5,6.7,3.2,10,1.4
			c3.3-1.8,4.1-5.3,1.8-7.8c-1.9-2.1-5.3-2.9-8.2-2.1l-28.6-32.5l-18.4,0l-37.8-48.3l0-20.9c-1.3,0-2.5,0-3.8,0L1991.8-941.8z"/>
		<path class="st5" d="M2031.6-942.2l25.7,0l0.3,12.9c-3.6,0.7-6.2,3.2-6.2,6.2c0.1,3.5,3.7,6.3,8.2,6.3c4.5,0,8.1-2.9,8-6.4
			c-0.1-3-2.7-5.4-6.2-6.1l-0.4-15.9l-25.6,0l0.3-17.7c-1.3,0-2.5-0.1-3.8-0.1L2031.6-942.2z M2065.7-923.2c0,2.7-2.7,4.9-6.1,4.9
			c-3.4,0-6.2-2.1-6.3-4.8c0,0.7,0,1.3,0,0c0-1.3,0-0.7,0,0c0-2.7,2.7-4.9,6.1-4.9C2062.9-928,2065.7-925.9,2065.7-923.2z"/>
		<path class="st5" d="M2010.7-996.6l21.5,15.1l-0.3,18.5c1.3,0,2.5,0.1,3.8,0.1l0.3-19.9l-20.9-14.7
			C2013.7-997.2,2012.2-996.9,2010.7-996.6z"/>
		<path class="st5" d="M2067.6-922.4C2067.6-922.1,2067.6-922.2,2067.6-922.4L2067.6-922.4z"/>
		<path class="st5" d="M2053.3-923.1C2053.3-923.1,2053.3-923.1,2053.3-923.1C2053.3-923.1,2053.3-923.1,2053.3-923.1L2053.3-923.1z
			"/>
		<path class="st5" d="M2067.6-924C2067.6-924.3,2067.6-924.2,2067.6-924L2067.6-924z"/>
		<path class="st5" d="M2042.5-948.9l32.5,0l0.2,34.8c-3,0.7-5.2,2.8-5.2,5.4c0,3.1,3.2,5.6,7.2,5.6c4,0,7.1-2.5,7.1-5.6
			c0-2.6-2.3-4.7-5.3-5.4l-0.2-37.7l-32.5,0l0-10.6c-1.3-0.1-2.5-0.1-3.8-0.1L2042.5-948.9z"/>
		<path class="st5" d="M2104.5-924.8l4.9,0c0.8,2.4,3.6,4.1,6.9,4.1c4,0,7.2-2.5,7.2-5.6c0-3.1-3.2-5.6-7.2-5.6
			c-3.3,0-6.1,1.8-6.9,4.1h-2.9l-28.5-33c-1.6-0.1-3.3-0.2-4.9-0.3L2104.5-924.8z"/>
		<path class="st5" d="M2042.5-983.1l0,20.5c1.3,0,2.5,0.1,3.8,0.1l0-17.7l10.2,0l16.5,19.1c1.6,0.1,3.3,0.2,4.9,0.3l-19.4-22.4
			L2042.5-983.1z"/>
		<path class="st5" d="M1929-733l26.7,0c0.8,2.4,3.6,4.1,6.9,4.1c4,0,7.2-2.5,7.2-5.6c0-3.1-3.2-5.6-7.2-5.6c-3.3,0-6.1,1.7-6.9,4.1
			l-22.9,0l0-14.9l7.2-8.3c3.4,1,7.4,0,9.5-2.4c2.5-2.9,1.5-6.9-2.2-8.8c-3.7-1.9-8.8-1.2-11.3,1.8c-2.1,2.5-1.7,5.8,0.8,7.9
			l-7.8,9.1L1929-733z M1947.7-762.3C1947.1-761.5,1947.3-761.9,1947.7-762.3L1947.7-762.3z M1937.5-767.9c1.9-2.2,5.8-2.8,8.6-1.3
			c2.9,1.5,3.6,4.5,1.7,6.7c0,0,0,0,0,0c-1.9,2.2-5.8,2.8-8.6,1.3C1936.4-762.6,1935.6-765.6,1937.5-767.9z"/>
		<path class="st5" d="M1935.9-768.7c-0.2,0.3-0.4,0.5-0.6,0.7C1935.5-768.2,1935.7-768.4,1935.9-768.7z"/>
		<path class="st5" d="M1935.9-768.7c0.2-0.2,0.4-0.5,0.6-0.7C1936.4-769.2,1936.2-769,1935.9-768.7z"/>
		<path class="st5" d="M2110.6-842.8l-40.2,0.1l-19.8-23.4c2.5-2.1,3-5.3,1-7.8c0.6,0.7,1.2,1.4,0-0.1c-1.2-1.4-0.6-0.8,0,0
			c-2.5-2.9-7.5-3.7-11.2-1.8c-3.7,1.9-4.8,5.9-2.3,8.8c2.1,2.5,6,3.4,9.4,2.5l20.9,24.8l39.9-0.1l14.2,22.2l-10.1,9.4l9.4,13
			l14.2-0.8l18.6,29.7l16.7,0c0.8,2.4,3.6,4.1,6.9,4.1c4,0,7.2-2.5,7.2-5.6c0-3.1-3.2-5.6-7.2-5.6c-3.3,0-6.1,1.7-6.9,4.1l-14.3,0
			l-18.7-29.9l-14.3,0.8l-6.9-9.5l10-9.3L2110.6-842.8z M2048.2-866.5c-2.9,1.5-6.7,0.9-8.6-1.4c-1.9-2.2-1.1-5.3,1.8-6.7
			c2.9-1.5,6.7-0.8,8.6,1.4C2051.8-870.9,2051-867.9,2048.2-866.5z"/>
		<path class="st5" d="M2144-737c2.3,2.5,6.8,3.1,10,1.2c3.2-1.8,3.9-5.3,1.6-7.8c-1.9-2.1-5.4-2.8-8.3-1.9l-16.3-17.5l-21.4,0.3
			l-19.9-32.5l-42.6,0l-6.3-9.9l14.8-16.8l20.6,0l3.9,5.5c-2.3,1.7-2.9,4.5-1.3,6.7c1.9,2.7,6.3,3.7,9.7,2.2
			c3.5-1.5,4.7-4.9,2.8-7.6c-1.6-2.3-4.9-3.3-7.9-2.8l-5-7.1l-24.9,0l-17.2,19.5l8.4,13.2l42.6,0l18.1,29.6l-8.4,0.1l-16.9-24.1
			l-38.7,0l-16-18.6l26.5-26.7l33.9,0l33.3,49.1c-2.8,1.9-3.7,5.1-1.9,7.8c2.1,3.1,7,4.3,11,2.6c4-1.6,5.5-5.5,3.4-8.6
			c-1.8-2.6-5.6-3.9-9.1-3.2l-34.4-50.8l-38,0l-29.3,29.6l18.7,21.7l38.5,0l16.9,24.1l34.3-0.5l15.1,16.2
			C2142.2-741.9,2142-739.1,2144-737z M2121.4-782.3c3-1.3,6.8-0.3,8.4,2c1.6,2.4,0.4,5.3-2.6,6.6c-3,1.3-6.8,0.3-8.4-2
			C2117.2-778.1,2118.4-781,2121.4-782.3z"/>
		<path class="st5" d="M2117.7-774.1c0-0.1-0.2-0.3-0.6-0.9C2115.6-777.4,2117.5-774.4,2117.7-774.1z"/>
		<path class="st5" d="M2010.8-943.1l0.2,0.4l20.6,28.6c-2.2,1.7-2.8,4.5-1.2,6.7c1.9,2.7,6.3,3.6,9.8,2.1c3.4-1.5,4.7-4.9,2.7-7.6
			c-1.6-2.2-4.9-3.3-8-2.7l-20.4-28.2l0-19.5c-1.3,0-2.5,0-3.8,0L2010.8-943.1z"/>
		<path class="st5" d="M2012.7-981.6c-4.5,0-8.1,2.9-8.1,6.4c0,3,2.7,5.5,6.2,6.2l0,5.7c1.3,0,2.5,0,3.8,0l0-5.8
			c3.6-0.7,6.2-3.2,6.2-6.2C2020.8-978.8,2017.2-981.6,2012.7-981.6z M2012.7-970.4c-3.4,0-6.2-2.2-6.2-4.9c0-2.7,2.8-4.9,6.2-4.9
			c3.4,0,6.2,2.2,6.2,4.9C2018.9-972.6,2016.1-970.4,2012.7-970.4z"/>
		<path class="st5" d="M2217-852c4,0,7.2-2.5,7.2-5.6c0-3.1-3.2-5.6-7.2-5.6c-3.3,0-6.1,1.7-6.9,4.1l-55.6-0.1l-0.2-25.6l-31.5-21.3
			l-12.6,0l0-5.7l12.6,0l36.4,23.4l0,21l25.3,0c0.8,2.4,3.6,4.1,6.9,4.1c4,0,7.2-2.5,7.2-5.6c0-3.1-3.2-5.6-7.2-5.6
			c-3.3,0-6.1,1.7-6.9,4.1l-21.5,0l0-19.4l-38.9-25l-29.4,0l-0.1,15l-30.4,0l40.6,49.4l6.7,0l46.9,69.6l26.2,0
			c0.8,2.4,3.6,4.1,6.9,4.1c4,0,7.2-2.5,7.2-5.6c0-3.1-3.2-5.6-7.2-5.6c-3.3,0-6.1,1.7-6.9,4.1l-23.9,0l-46.9-69.6l-7,0l-26.6-32.3
			l18.1,0l59.1,79.9c-2.2,1.8-2.7,4.5-1.1,6.7c2,2.7,6.4,3.6,9.8,2c3.4-1.6,4.6-5,2.6-7.7c-1.6-2.2-5-3.2-8-2.6l-60.2-81.4l-22.8,0
			l-6.7-8.2l27.2,0l0-1.5l8.8,0l52.6,65.5c-2.1,1.8-2.5,4.6-0.8,6.8c2.1,2.6,6.5,3.4,9.9,1.8c3.3-1.6,4.4-5.1,2.2-7.7
			c-1.7-2.2-5.1-3.1-8.1-2.4l-53.7-66.9l-10.9,0l0.1-10.5h7.8l0,8.7l15,0l29.2,19.6l0.2,27.2l59.4,0.1
			C2210.9-853.8,2213.7-852,2217-852z"/>
		<path class="st5" d="M1856.5-974.4c-0.5,0.1-1,0.3-1.4,0.4v9.9c1,0.4,2.1,0.7,3.3,0.7c4,0,7.2-2.5,7.2-5.6c0-2.6-2.2-4.7-5.3-5.4
			l0.5-69.2c-1.3,0.4-2.5,0.8-3.8,1.2L1856.5-974.4z"/>
		<path class="st5" d="M1857.2-1063.8l-0.2,21.5c1.3-0.4,2.5-0.8,3.8-1.2l0.2-20.3H1857.2z"/>
		<polygon class="st5" points="1864.8,-765.4 1855.1,-776.2 1855.1,-771 1861,-764.4 1861,-723.2 1855.1,-723.2 1855.1,-720.2 
			1864.8,-720.2 		"/>
		<path class="st5" d="M1864.7-810.5l-0.1-132.5l-9.5-5.2v3.6l5.7,3.1l0.1,72.3l-5.8-2.6v3.5l5.8,2.6l0,55.2c-3,0.7-5.3,2.8-5.2,5.4
			c0,3.1,3.2,5.6,7.2,5.6c4,0,7.2-2.5,7.2-5.6C1870-807.7,1867.8-809.9,1864.7-810.5z"/>
		<path class="st5" d="M1856.5-908.6c0-1.2-0.5-2.4-1.4-3.3v6.6C1856-906.2,1856.5-907.4,1856.5-908.6z"/>
		<path class="st5" d="M2559.9-531.2C2558.1-530.2,2559-530.7,2559.9-531.2L2559.9-531.2z"/>
		<path class="st5" d="M2615-628.3l-37.5,45.9l0,47.3l-7.5,4.3c-2.8-1.9-6.9-2.1-10.1-0.4c0.9-0.5,1.8-1,0,0c-3.6,2-4.5,6-1.9,8.9
			c2.6,2.8,7.7,3.5,11.3,1.5c3.1-1.7,4.2-4.9,2.8-7.5l9.1-5.2l0-47.9l37.5-45.9l-0.1-79.1l-32.1,0l-29.4,23.5l-21.1-0.1l-46.7,52
			l-34.3,0.1l-10.8,22.1c-3.1-0.2-6.2,1.2-7.4,3.6c-1.4,2.9,0.4,6.1,4.1,7.2c3.7,1.1,7.8-0.3,9.2-3.2c1.2-2.4,0.1-5.1-2.4-6.5
			l9.9-20.2l33.6-0.1l46.7-52l20.7,0.1l29.4-23.5l26.7,0L2615-628.3 M2568.3-522.1C2568.3-522.1,2568.3-522.1,2568.3-522.1
			c-0.3,0.2-0.5,0.3-0.7,0.4C2567.8-521.8,2568.1-522,2568.3-522.1c-2.8,1.6-6.7,1.1-8.7-1.1c-2-2.2-1.4-5.2,1.4-6.8
			c2.8-1.6,6.7-1.1,8.7,1.1C2571.7-526.7,2571.1-523.7,2568.3-522.1z"/>
		<path class="st5" d="M2442-642.1l-24.8,47.5c-3.6-0.4-7.1,1.2-8.6,3.9c-1.7,3.2,0.3,7,4.5,8.3c4.1,1.3,8.9-0.2,10.6-3.5
			c1.5-2.8,0.2-6-2.9-7.6l23.8-45.6l35.4,0l28.5-34.2c3,0.7,6.4-0.1,8.2-2.3c2.2-2.6,1.2-6.1-2.1-7.8c-3.3-1.7-7.8-1-9.9,1.6
			c-1.8,2.2-1.4,4.9,0.6,6.8l-27.4,32.9L2442-642.1z M2421.9-586.5c-1.3,2.5-4.9,3.7-8.1,2.7c-3.2-1-4.7-3.9-3.4-6.3
			c1.3-2.5,4.9-3.7,8.1-2.7C2421.7-591.8,2423.2-589,2421.9-586.5z"/>
		<path class="st5" d="M2423.7-585.9c-0.1,0.3-0.3,0.6-0.4,0.8C2423.4-585.3,2423.5-585.5,2423.7-585.9z"/>
		<path class="st5" d="M2423.9-586.3c0.1-0.2,0.2-0.4,0.3-0.5C2424.1-586.8,2424-586.6,2423.9-586.3z"/>
		<path class="st5" d="M2598.9-420.9c-3.1,0-5.7,1.5-6.7,3.6h13.3C2604.5-419.4,2601.9-420.9,2598.9-420.9z"/>
		<polygon class="st5" points="2597.8,-452.8 2546.3,-452.8 2537.3,-435.1 2537.3,-417.3 2541.1,-417.3 2541.1,-434.5 
			2548.8,-449.8 2599.7,-449.8 2644.8,-496.2 2678.8,-458.1 2678.9,-417.3 2679.4,-417.3 2679.4,-462.7 2644.9,-501.3 		"/>
		<path class="st5" d="M2644.9-470.8c2.3-2.5,1.6-6-1.6-7.8c-3.2-1.8-7.7-1.2-10,1.3c-1.9,2.1-1.7,4.9,0.2,6.8l-29.8,32.4l-31.3,0
			c-0.8-2.4-3.6-4.1-6.9-4.1c-4,0-7.2,2.5-7.2,5.6c0,3.1,3.2,5.6,7.2,5.6c3.3,0,6.1-1.7,6.9-4.1l33.2,0l30.9-33.6
			C2639.5-467.9,2642.9-468.7,2644.9-470.8"/>
		<path class="st5" d="M2536.8-622.7c-3.5,0.7-6.2,3.1-6.2,6.1c-0.1,3.5,3.5,6.4,8,6.4c4.5,0,8.2-2.8,8.2-6.3c0-3-2.6-5.6-6.2-6.2
			l0.3-12.9l25.7,0l-0.7-39.3l28.3-20h8.4l0.1,58.8l-37.7,48.4l-18.4,0l-28.5,32.5c-3-0.8-6.4,0-8.2,2.1c-2.2,2.6-1.4,6,1.9,7.8
			c3.3,1.8,7.7,1.1,10-1.4c1.9-2.1,1.6-4.9-0.4-6.8l27.4-31.2l18.6,0l39.3-50.5l0-62.6l-13.6,0l-30.6,21.7l0.7,37.6l-25.6,0
			L2536.8-622.7z M2544.9-616.5c0,2.7-2.9,4.8-6.3,4.8c-3.4,0-6.2-2.2-6.1-4.9c0.1-2.7,2.9-4.8,6.3-4.8
			C2542.2-621.4,2544.9-619.2,2544.9-616.5z"/>
		<path class="st5" d="M2546.8-617.3C2546.8-617.5,2546.8-617.6,2546.8-617.3L2546.8-617.3z"/>
		<path class="st5" d="M2546.8-617.3c0,0.1,0,0.2,0,0.4C2546.8-617,2546.8-617.1,2546.8-617.3z"/>
		<path class="st5" d="M2546.8-615.7C2546.8-615.4,2546.8-615.4,2546.8-615.7L2546.8-615.7z"/>
		<path class="st5" d="M2539.5-676.6l-47.8,55.4l-2.9,0c-0.8-2.4-3.6-4.1-6.9-4.1c-4,0-7.2,2.5-7.2,5.6c0,3.1,3.2,5.6,7.2,5.6
			c3.3,0,6.1-1.7,6.9-4.1h4.9l47.8-55.4l10.2,0l0,28.3l-32.5,0l-0.1,37.7c-3,0.6-5.3,2.8-5.3,5.4c0,3.1,3.2,5.6,7.1,5.6
			c4,0,7.2-2.5,7.2-5.6c0-2.6-2.2-4.8-5.2-5.4l0.1-34.8l32.5,0l0-34.3L2539.5-676.6z"/>
		<path class="st5" d="M2630.3-737l-2.9,0c-0.8-2.4-3.6-4.1-6.9-4.1c-4,0-7.2,2.5-7.2,5.6c0,3.1,3.2,5.6,7.2,5.6
			c3.3,0,6.1-1.7,6.9-4.1h4.9l47.1-54.5v-3.9h-1.2L2630.3-737z"/>
		<path class="st5" d="M2657.8-723.5c-3,0.6-5.3,2.8-5.3,5.4c0,3.1,3.2,5.6,7.1,5.6c3.9,0,7.2-2.5,7.2-5.6c0-2.6-2.2-4.8-5.2-5.4
			l0.1-34.8l17.6,0v-3l-21.4,0L2657.8-723.5z"/>
		<path class="st5" d="M2560.3-560.5C2560.3-560.5,2560.3-560.5,2560.3-560.5C2559.1-559,2559.7-559.7,2560.3-560.5z"/>
		<path class="st5" d="M2530-533.2l20.8-24.8c3.4,1,7.4,0,9.5-2.5c0,0,0,0,0,0c2.5-2.9,1.4-6.9-2.3-8.8c-3.7-1.9-8.8-1.1-11.2,1.8
			c-2.1,2.5-1.6,5.7,0.9,7.8l-19.7,23.5l-40.2,0l-16.3,25.7l10,9.3l-6.9,9.5l-14.3-0.8l-18.6,29.9l-14.3,0c-0.8-2.4-3.6-4.1-6.9-4.1
			c-4,0-7.2,2.5-7.2,5.6c0,3.1,3.2,5.6,7.2,5.6c3.3,0,6.1-1.7,6.9-4.1l16.7,0l18.5-29.7l14.2,0.8l9.4-13l-10.1-9.4l14.1-22.3
			L2530-533.2z M2548.4-566.6C2548.4-566.6,2548.4-566.6,2548.4-566.6c1.9-2.3,5.8-2.9,8.6-1.4c2.9,1.5,3.7,4.5,1.8,6.7
			c-1.9,2.2-5.7,2.9-8.6,1.4C2547.3-561.4,2546.5-564.4,2548.4-566.6z"/>
		<path class="st5" d="M2560.3-560.5C2560.9-561.2,2561.6-561.9,2560.3-560.5L2560.3-560.5z"/>
		<path class="st5" d="M2406.9-470c3.3,0,6.1-1.7,6.9-4.1l26.2,0l46.7-69.6l6.8,0l40.5-49.4l-30.4,0l-0.1-15l-29.4,0l-38.8,25
			l0,19.4l-21.5,0c-0.8-2.4-3.6-4.1-6.9-4.1c-4,0-7.2,2.5-7.2,5.6c0,3.1,3.2,5.6,7.2,5.6c3.3,0,6.1-1.8,6.9-4.1l25.3,0l0-21
			l36.4-23.4l12.6,0v5.8l-12.6,0l-31.5,21.3l-0.2,25.6l-55.6,0.2c-0.8-2.4-3.6-4.1-6.9-4.1c-4,0-7.2,2.5-7.1,5.6
			c0,3.1,3.2,5.6,7.2,5.6c3.3,0,6.1-1.8,6.9-4.1l59.4-0.2l0.2-27.2l29.1-19.7l15,0l0-8.7l7.8,0l0.1,10.5l-10.9,0l-0.6,0.7l-53,66.2
			c-3-0.7-6.4,0.2-8.1,2.4c-2.1,2.6-1.1,6.1,2.3,7.7c3.3,1.6,7.8,0.9,9.9-1.8c1.7-2.2,1.3-5-0.8-6.8l52.5-65.5l8.8,0l0,1.5l27.2,0
			l-6.7,8.2l-22.8,0l-60,81.4c-3-0.6-6.4,0.4-8,2.6c-2,2.7-0.8,6.1,2.6,7.7c3.4,1.5,7.8,0.6,9.8-2.1c1.7-2.2,1.1-5-1.1-6.7
			l58.9-79.9l18.1,0l-26.5,32.3h-7l-46.7,69.7l-23.9,0c-0.8-2.4-3.6-4.1-6.9-4.1c-4,0-7.2,2.5-7.2,5.6
			C2399.8-472.5,2403-470,2406.9-470z"/>
		<path class="st5" d="M2454.3-437.2l15.1-16.3l34.3,0.5l16.9-24.1l38.5,0l18.7-21.7l-29.3-29.5l-38,0l-34.3,50.8
			c-3.5-0.7-7.4,0.5-9.1,3.2c-2.1,3.1-0.6,7,3.4,8.6c4,1.6,8.9,0.4,11-2.7c1.8-2.7,0.9-5.8-1.8-7.7l33.2-49.2l33.9,0l26.5,26.7
			l-16,18.6l-38.7,0l-16.8,24.1l-8.4-0.1l18.1-29.6l42.6,0l8.4-13.2l-17.2-19.5l-24.9,0l-5,7.1c-3.1-0.6-6.4,0.5-7.9,2.8
			c-1.9,2.7-0.6,6.1,2.8,7.6c3.5,1.5,7.8,0.5,9.7-2.2c1.6-2.3,1-5-1.3-6.7l3.9-5.6l20.6,0l14.8,16.8l-6.3,10l-42.6,0l-19.8,32.5
			l-21.4-0.3l-16.2,17.5c-2.9-0.9-6.4-0.1-8.3,2c-2.3,2.5-1.6,6,1.6,7.8c3.2,1.8,7.7,1.3,10-1.2
			C2456.5-432.4,2456.3-435.2,2454.3-437.2z M2479.6-469.1c-1.6,2.4-5.4,3.3-8.4,2c-3-1.3-4.2-4.2-2.6-6.6c1.6-2.4,5.4-3.3,8.4-2
			C2480.1-474.4,2481.2-471.5,2479.6-469.1z"/>
		<path class="st5" d="M2467-474.3c0.2-0.4,0.4-0.6,0.5-0.7C2467.3-474.9,2467.2-474.6,2467-474.3z"/>
		<path class="st5" d="M2467-474.3c-0.4,0.6-0.5,0.8-0.6,0.9C2466.4-473.5,2466.7-473.9,2467-474.3z"/>
		<path class="st5" d="M2555.2-606.4c-1.9,2.7-0.7,6.1,2.7,7.6c3.4,1.5,7.8,0.6,9.8-2.1c1.6-2.2,1-5-1.2-6.7l20.8-28.9l0-26.1
			c3.6-0.7,6.2-3.2,6.2-6.2c0-3.5-3.6-6.4-8.1-6.3c-4.5,0-8.1,2.9-8.1,6.4c0,3,2.7,5.5,6.2,6.2l0,25.3l-20.3,28.3
			C2560.2-609.6,2556.9-608.6,2555.2-606.4z M2579.2-668.7c0-2.7,2.8-4.9,6.2-4.9c3.4,0,6.2,2.2,6.2,4.9c0,2.7-2.8,4.9-6.2,4.9
			C2582-663.9,2579.2-666.1,2579.2-668.7z"/>
		<path class="st5" d="M2637.7-648.7l0.1,70.7l40.9,18.7l0,12.6l-33.8,15l-32.3,0c-0.9-2.8-4.1-4.9-7.9-4.9c-4.5,0-8.1,2.9-8.1,6.4
			c0,3.5,3.7,6.4,8.1,6.4c3.8,0,7-2.1,7.9-4.9l33.2,0l0.5-0.2l32.4-14.3l0,39.2c-3,0.7-5.3,2.8-5.2,5.4c0,2.7,2.5,5,5.8,5.5v-50.4
			v-3.4v-91.3 M2679.4-638.4l-48.9-26.9l0-46.5l-23.2-9.9l0-21.2l12.7-9.7l-0.1-92.5l5.8-4.5l0-25.2l-101,0.1l-58.6,29.4l-61.2,0
			l-6.5,7.2c-3.4-1.1-7.4-0.2-9.7,2.2c-2.6,2.9-1.8,6.8,1.9,8.9c3.6,2,8.7,1.4,11.3-1.5c2.2-2.4,1.9-5.7-0.5-7.8l5.4-5.9l60.3,0
			l58.6-29.4l96.1-0.1l0,20.9l-29.9,23.1l0.2,16.2l-66.3,36.7l-0.1,26.3l-25.8,7.8c-1.9-2-5.3-2.8-8.3-1.9c-3.7,1.1-5.5,4.4-4.1,7.2
			c1.4,2.9,5.6,4.3,9.3,3.2c3.1-0.9,4.9-3.3,4.6-5.8l28.2-8.5l0.1-26.8l66.3-36.7l-0.2-16.5l20.3-15.6l0.1,81.5l-51.8,0
			c-0.9-2.8-4.1-4.9-7.9-4.9c-4.5,0-8.1,2.8-8.1,6.3c0,3.5,3.6,6.4,8.1,6.4c3.8,0,7-2.1,7.9-4.9h51.8l0,3.9l-12.7,9.7l0,24.3
			l23.2,9.9l0.1,85l-38.9,46.1l0.1,85.1l-25.2,24.1l-37.3,0l-14.7,21.6l-24.3,0l-13.1,13.9c-2.9-0.9-6.4-0.2-8.3,1.9
			c-2.4,2.5-1.7,6,1.5,7.8c3.2,1.8,7.7,1.3,10-1.2c2-2.1,1.8-4.8-0.1-6.8l12-12.7l24.7,0l14.7-21.6l36.8,0l27.2-26l-0.1-85.2
			l38.9-46.1l0-37.5l48.2,26.5l0.1,72.3l-37.1-17l-0.1-62.9l23.6,14.2l0.1,20.9c-3,0.7-5.2,2.8-5.2,5.4c0,3.1,3.2,5.6,7.2,5.6
			c4,0,7.2-2.5,7.1-5.6c0-2.6-2.2-4.7-5.3-5.4L2669-630l-31.3-18.7 M2400.4-829.5C2400.3-829.5,2400.3-829.5,2400.4-829.5
			c-0.1,0.1-0.1,0.1-0.1,0.1c-2,2.2-5.9,2.6-8.6,1.1c-2.8-1.6-3.4-4.6-1.4-6.8c2-2.2,5.9-2.7,8.7-1.1
			C2401.6-834.7,2402.3-831.7,2400.4-829.5z M2556.5-754.4c-3.4,0-6.2-2.2-6.2-4.9c0-2.7,2.8-4.9,6.2-4.9c3.4,0,6.2,2.2,6.2,4.9
			C2562.7-756.5,2559.9-754.4,2556.5-754.4z M2604.8-525.4c-3.4,0-6.2-2.2-6.2-4.9c0-2.7,2.8-4.9,6.2-4.9s6.2,2.2,6.2,4.9
			C2611-527.6,2608.3-525.4,2604.8-525.4z"/>
		<path class="st5" d="M2028.5-1034.4c-0.8-2.4-3.6-4.1-6.9-4.1c-4,0-7.2,2.5-7.2,5.6c0,3.1,3.2,5.6,7.2,5.6c3.3,0,6.1-1.7,6.9-4.1
			l16.7,0l18.5-29.7l14.2,0.8l2.5-3.5h-4.4l-0.3,0.4l-6.7-0.4h-7.9l-18.4,29.5L2028.5-1034.4z"/>
		<path class="st5" d="M2042.8-1063.8h-11.7c0.6,0.7,1.3,1.2,2.3,1.7C2036.6-1060.7,2040.7-1061.5,2042.8-1063.8z"/>
		<path class="st5" d="M2008.1-1041.8c3.3,0,6.1-1.7,6.9-4.1l26.2,0l12-17.9h-4.3l-10,14.9l-23.9,0c-0.8-2.4-3.6-4.1-6.9-4.1
			c-3.9,0-7.2,2.5-7.2,5.6C2001-1044.3,2004.2-1041.8,2008.1-1041.8z"/>
		<path class="st5" d="M2066.3-1020.6l4.3-4.6l18.8,0.3c6-1.1,11.9-2.1,17.9-3.2l14.5-20.7l38.5,0l12.8-15h-4.6l-10.3,12l-38.7,0
			l-16.8,24.1l-8.4-0.1l18-29.6l42.6,0l4-6.3h-4.3l-2.1,3.4l-42.6,0l-19.8,32.5l-21.4-0.3l-8.1,8.7
			C2062.5-1019.9,2064.4-1020.2,2066.3-1020.6z"/>
		<path class="st5" d="M2043.5-1003.1c0.5,0.8,1.3,1.6,2.3,2.1c3.2,1.8,7.7,1.3,10-1.2c1-1.1,1.4-2.4,1.3-3.6
			C2052.6-1004.9,2048-1004,2043.5-1003.1z"/>
		<path class="st5" d="M2068.2-1046.1c-2.1,3.1-0.6,7,3.4,8.6c4,1.6,8.9,0.4,11-2.7c1.8-2.7,0.9-5.8-1.8-7.7l10.7-15.9h-4.3
			l-9.8,14.5C2073.8-1050,2070-1048.8,2068.2-1046.1z M2080.8-1040.9c-1.6,2.4-5.4,3.3-8.4,2c-3-1.3-4.2-4.2-2.6-6.6
			c1.6-2.4,5.4-3.3,8.4-2C2081.3-1046.2,2082.4-1043.3,2080.8-1040.9z"/>
		<path class="st5" d="M2077.5-1004.2l6.3-6.6c-1.9,0.4-3.8,0.7-5.8,1.1l-3.6,3.8c-2.9-0.9-6.4-0.2-8.3,1.9c-2.3,2.5-1.7,6,1.5,7.8
			c3.2,1.8,7.7,1.3,10-1.2C2079.5-999.5,2079.4-1002.3,2077.5-1004.2z"/>
		<path class="st5" d="M2187.2-1063.8l-23.2,22.3l-37.3,0l-7.9,11.6c1.6-0.3,3.2-0.5,4.8-0.8l5.3-7.8l36.8,0l26.3-25.2H2187.2z"/>
		<path class="st5" d="M1921.9-841.8c0,0,0.1,0.1,0.2,0.3C1922-841.7,1921.9-841.8,1921.9-841.8z"/>
		<path class="st5" d="M1922.6-841c-0.2-0.2-0.3-0.3-0.4-0.4C1922.3-841.3,1922.4-841.2,1922.6-841z"/>
		<path class="st5" d="M1923.1-840.5c0.1,0.1,0.2,0.2,0.3,0.3C1923.3-840.3,1923.3-840.3,1923.1-840.5z"/>
		<path class="st5" d="M2211.7-954.8c-1.2-1.7-3.6-2.9-6.2-2.9c-2.7,0-5,1.1-6.2,2.8C2203.4-954.9,2207.6-954.9,2211.7-954.8z"/>
		<path class="st5" d="M2406.3-929.2c-2.8-1.8-7-2-10.1-0.2c-3.6,2.1-4.3,6.1-1.6,8.9c2.7,2.8,7.8,3.4,11.4,1.3
			c3.1-1.8,4-4.9,2.6-7.6l26.4-15.5l15.4,0c-6.4-0.5-12.7-1-19.1-1.5L2406.3-929.2z M2404.9-920.4c-2.7,1.6-6.6,1.2-8.7-1
			c-2.1-2.1-1.5-5.2,1.2-6.8c2.7-1.6,6.6-1.2,8.7,1C2408.2-925.1,2407.6-922,2404.9-920.4z"/>
		<path class="st5" d="M2538.4-934.9l-4.8,7l-86.8,0c-0.8-2.4-3.6-4.1-6.9-4.1c-4,0-7.2,2.5-7.2,5.6c0,3.1,3.2,5.6,7.2,5.6
			c3.3,0,6.1-1.7,6.9-4.1l84.7,0l-9,13l-123.3,0.1l-32.2-19.9c1.2-2.3,0.4-5-2.2-6.6c-3.1-1.9-7.6-1.5-10.1,0.9
			c-2.5,2.4-1.9,6,1.2,7.9c2.6,1.6,6.1,1.6,8.7,0.1l33.3,20.6l122.6-0.1l-4.4,6.4l-122.8,0.1l-76.9-40.6l-81,0
			c-0.8-2.4-3.6-4.1-6.9-4.1c-4,0-7.2,2.5-7.1,5.6c0,3.1,3.2,5.6,7.2,5.6c3.3,0,6.1-1.8,6.9-4.1l79.8,0l71.2,37.7l-12.8,0
			l-59.9-32.1l-77.7,0l0.1,74.2l-32.1,27.6c-2.8-1.1-6.3-0.7-8.5,1.2c-2.7,2.3-2.5,5.8,0.5,7.9c2.9,2.1,7.4,1.9,10.1-0.4
			c2.2-1.9,2.4-4.7,0.8-6.8l33.1-28.4l-0.1-72.4l72.7,0l59.9,32.1l145.8-0.1l24.2-34.9C2541.1-934.7,2539.8-934.8,2538.4-934.9z"/>
		<path class="st5" d="M2212.4-953.6c-0.2-0.4-0.4-0.8-0.7-1.2c-4.1,0-8.3-0.1-12.4-0.1c-0.6,0.8-1,1.8-1,2.8c0,3.1,3.2,5.6,7.2,5.6
			c3.3,0,6.1-1.7,6.9-4.1l119.4-0.1c-21.6-1.2-43.3-2.2-65-2.9L2212.4-953.6z"/>
		<path class="st5" d="M2556.5-954.8l122.9,0.5v-3l-125.1-0.5l-0.6,0.8l-2.2,3.2l-284.6,0.1c21.7,0.7,43.3,1.7,65,2.9l217.6-0.1
			l-3.8,5.5l-111.9,0.1l-2.5,1.5c6.4,0.5,12.7,1,19.1,1.5l93.2,0l-5.2,7.5c1.4,0.1,2.7,0.2,4.1,0.3L2556.5-954.8z"/>
		<path class="st5" d="M2645-865.9l-12.7-18.2l-111.9,0.1l-58.8,30.5l-108.8,0.1l-33.2,21.3l0,28.9l-27.5,11.6l0,19.3l-16.2,9.4
			c-2.5-1.5-6-1.6-8.7-0.1c-3.2,1.8-3.8,5.4-1.5,7.8c2.4,2.5,6.8,3,10,1.2c2.6-1.5,3.5-4.2,2.4-6.5l17.8-10.3l0-19.1l27.5-11.6
			l0-29.2l30.8-19.8l108.6-0.1l58.8-30.5l108.5-0.1l12.7,18.2l31,0l5.7-4.6v-4.3l-7.3,5.9L2645-865.9z"/>
		<path class="st5" d="M2388.1-835.3C2387.9-835.1,2387.8-835.1,2388.1-835.3L2388.1-835.3z"/>
		<path class="st5" d="M2389.2-836.6C2389.4-836.8,2389.5-836.9,2389.2-836.6L2389.2-836.6z"/>
		<path class="st5" d="M2471.9-721.9c-4.2,1.3-6.1,5-4.5,8.3c1.7,3.2,6.4,4.8,10.5,3.5c-1,0.3-1.9,0.6,0.1,0c2-0.6,1.1-0.4,0.1,0
			c3.5-1.1,5.4-4,4.9-6.8l60.6-19.4l0-28.1l41.9-21.5c2.4,1.6,5.9,1.9,8.6,0.5c3.3-1.7,4.2-5.2,2.1-7.8c-2.2-2.6-6.6-3.3-9.9-1.6
			c-2.8,1.4-3.9,4.1-2.9,6.4l-43.7,22.4l0,27.7l-58.2,18.6C2479.4-722.1,2475.4-723.1,2471.9-721.9z M2477.3-711.6
			c-3.2,1-6.8-0.2-8.1-2.7c-1.3-2.5,0.2-5.3,3.4-6.3c-0.1,0-0.2,0-0.2,0.1c0.1,0,0.1,0,0.2-0.1c1.6-0.5,0.8-0.2,0,0
			c3.2-1,6.8,0.2,8.1,2.7C2482-715.4,2480.5-712.6,2477.3-711.6z"/>
		<path class="st5" d="M2582.9-925.5c-4,0-7.2,2.5-7.2,5.6c0,3.1,3.2,5.6,7.2,5.6c3.3,0,6.1-1.7,6.9-4.1l89.6,0.5v-3l-89.6-0.5
			C2588.9-923.7,2586.2-925.5,2582.9-925.5z"/>
		<path class="st5" d="M2309.5-924.6l-57.6,0l0,60.2c-3,0.7-5.3,2.8-5.2,5.4c0,3.1,3.2,5.6,7.2,5.6c4,0,7.2-2.5,7.2-5.6
			c0-2.6-2.2-4.7-5.3-5.4l0-57.3l52.6,0l48.8,26.6l-59.2,35.4l0,39.8l-19.5,6.1l-37.4,0c-0.8-2.4-3.6-4.1-6.9-4.1
			c-4,0-7.1,2.5-7.1,5.6c0,3.1,3.2,5.6,7.2,5.6c3.3,0,6.1-1.8,6.9-4.1l38.1,0l22.6-7.1l0-40.4l61.8-36.9L2309.5-924.6z"/>
		<path class="st5" d="M2279.2-838.2c-3,0.6-5.2,2.8-5.2,5.4c0,3.1,3.2,5.6,7.2,5.6c4,0,7.2-2.5,7.2-5.6c0-2.6-2.2-4.7-5.3-5.4
			l0-24.5l41.3-23.4c2.5,1.5,6,1.7,8.7,0.2c3.2-1.8,3.9-5.3,1.6-7.8c-2.3-2.5-6.8-3.1-10-1.3c-2.7,1.5-3.6,4.2-2.5,6.5l-42.9,24.3
			L2279.2-838.2z"/>
		<path class="st5" d="M2207.9-1046.5c3.9,0,7.2-2.5,7.1-5.6c0-2.6-2.2-4.7-5.3-5.4v-6.3h-3.8v6.3c-3,0.7-5.3,2.8-5.3,5.4
			C2200.7-1049,2204-1046.5,2207.9-1046.5z"/>
		<path class="st5" d="M2366.1-868.9c2.7,2.8,7.7,3.4,11.4,1.4c3.1-1.8,4.1-5,2.6-7.6l11.1-6.3l97.4,0l-30.2,16.5l-32.9,0
			c-0.8-2.4-3.6-4.1-6.9-4.1c-4,0-7.2,2.5-7.2,5.6c0,3.1,3.2,5.6,7.2,5.6c3.3,0,6.1-1.7,6.9-4.1l34.1,0l41.1-22.5l-110.8,0.1
			l-0.5,0.3l-11.6,6.6c-2.8-1.8-6.9-2-9.9-0.3c0.9-0.5,1.7-1,0,0c-1.8,1-0.9,0.5-0.1,0C2364.2-875.6,2363.4-871.7,2366.1-868.9z
			 M2368.9-876.6c2.8-1.6,6.6-1.1,8.7,1c2,2.2,1.4,5.2-1.3,6.8c-2.8,1.6-6.6,1.1-8.7-1C2365.6-871.9,2366.2-875,2368.9-876.6z"/>
		<path class="st5" d="M2620.8-913c-4.5,0-8.1,2.9-8.1,6.4c0,3.5,3.6,6.3,8.1,6.3c3.8,0,7-2.1,7.9-4.9l50.7,0.4v-3l-50.7-0.4
			C2627.8-911,2624.6-913,2620.8-913z M2620.8-901.8c-3.4,0-6.2-2.2-6.2-4.9c0-2.7,2.8-4.9,6.2-4.9c3.4,0,6.2,2.2,6.2,4.9
			C2627-904,2624.2-901.8,2620.8-901.8z"/>
		<path class="st5" d="M2421.7-798.5c-3.3,1.8-4.1,5.3-1.8,7.8c2.2,2.5,6.7,3.2,10,1.4c2.7-1.5,3.7-4.1,2.7-6.5l41.5-22.4l0-14.4
			l61.7-29.6l75.1,0l0,6.5l-25.5,22.2l-50.1-0.5l0,20.1l-16.5,0.2c-0.9-2.8-4.1-4.9-8-4.8c-4.5,0-8.1,2.9-8,6.4
			c0.1,3.5,3.7,6.3,8.2,6.3c3.8,0,6.9-2.1,7.8-4.9l20.3-0.3l0-20l48,0.5l27.6-24v-10.7l-80,0l-64.4,30.9l0,14.5l-39.8,21.5
			C2428-799.7,2424.4-799.9,2421.7-798.5z M2510.9-807.2c-3.4,0-6.2-2.1-6.3-4.8c0-2.7,2.7-4.9,6.1-4.9c0,0,0,0,0,0c0,0,0,0,0,0
			c3.4,0,6.2,2.1,6.3,4.8C2517.1-809.4,2514.3-807.2,2510.9-807.2z"/>
		<path class="st5" d="M2509.9-805.7C2509.5-805.7,2509.6-805.7,2509.9-805.7L2509.9-805.7z"/>
		<path class="st5" d="M2510.8-816.9C2510.8-816.9,2510.8-816.9,2510.8-816.9C2510.8-816.9,2510.8-816.9,2510.8-816.9
			C2510.8-816.9,2510.8-816.9,2510.8-816.9z"/>
		<path class="st5" d="M2511.9-805.7C2512.4-805.7,2512.3-805.7,2511.9-805.7L2511.9-805.7z"/>
		<path class="st5" d="M2511.9-805.7c-0.1,0-0.3,0-0.6,0C2511.6-805.7,2511.8-805.7,2511.9-805.7z"/>
		<path class="st5" d="M2587.5-812.8l0-12.6l-43.7,0l0,25.4l-44.4,0.1c-0.9-2.4-3.6-4.1-6.9-4.1c-4,0-7.2,2.5-7.1,5.6
			c0,3.1,3.2,5.6,7.2,5.6c3.3,0,6-1.8,6.9-4.1l48.2-0.2l0-25.4l36.1,0l0,8l-70.7,37.5v3.8c-3,0.7-5.2,2.8-5.2,5.4
			c0,3.1,3.2,5.6,7.2,5.6c4,0,7.2-2.5,7.2-5.6c0-2.6-2.2-4.7-5.3-5.4v-2.2L2587.5-812.8z"/>
		<path class="st5" d="M2262.9-888c0,3.1,3.2,5.6,7.2,5.6c4,0,7.2-2.5,7.2-5.6c0-2.6-2.2-4.7-5.3-5.4l0-17.9l19,0l10.7,5.6
			c-1.2,2.7,0,5.8,3.1,7.4c3.7,1.9,8.8,1.2,11.3-1.8c2.5-2.9,1.5-6.9-2.2-8.8c-3.2-1.7-7.3-1.3-10,0.6l-11.6-6.1l-23.9,0l0,20.9
			C2265.1-892.7,2262.9-890.5,2262.9-888z M2304-906.2c1.9-2.2,5.8-2.8,8.6-1.3c2.8,1.5,3.6,4.5,1.7,6.7c-1.9,2.2-5.7,2.8-8.6,1.4
			c0,0,0,0,0,0c-1.4-0.7-0.7-0.4,0,0C2302.9-901,2302.1-904,2304-906.2z"/>
		<path class="st5" d="M2666.3-453.9c-4,0-7.2,2.5-7.2,5.6c0,2.6,2.2,4.7,5.3,5.4l0,17.9l-19,0l-10.7-5.6c1.2-2.7,0-5.8-3.1-7.4
			c-3.7-1.9-8.8-1.2-11.3,1.8c-2.5,2.9-1.5,6.9,2.2,8.8c3.2,1.7,7.3,1.3,10-0.6l11.6,6.1l23.9,0l0-20.9c3-0.7,5.3-2.8,5.3-5.4
			C2673.4-451.4,2670.2-453.9,2666.3-453.9z M2630.9-436.6C2631.7-436.1,2631.4-436.3,2630.9-436.6L2630.9-436.6z M2632.3-430
			c-1.9,2.2-5.8,2.8-8.6,1.4c-2.8-1.5-3.6-4.5-1.7-6.7c1.9-2.2,5.7-2.8,8.6-1.4c0,0,0,0,0,0c0,0,0,0,0.1,0
			C2633.4-435.2,2634.2-432.2,2632.3-430z"/>
		<path class="st5" d="M2313.7-908.8c-0.4-0.2-0.7-0.3-0.8-0.4C2313-909.1,2313.3-909,2313.7-908.8z"/>
		<path class="st5" d="M2314.6-908.3C2314.8-908.2,2314.8-908.2,2314.6-908.3L2314.6-908.3z"/>
		<path class="st5" d="M2313.7-908.8c0.4,0.2,0.7,0.4,0.8,0.4C2314.3-908.5,2314-908.6,2313.7-908.8z"/>
		<path class="st5" d="M2364-770.7l-16.5,7.4l1,11.1l-38,14.6l0,13.1c-3,0.7-5.3,2.8-5.3,5.4c0,3.1,3.2,5.6,7.2,5.6
			c4,0,7.2-2.5,7.2-5.6c0-2.6-2.2-4.7-5.3-5.4l0-11.2l38.1-14.6l-1-11.2l12.2-5.4l11.9,7.8l32.8-12.8l-0.1-31.5l29.9-15.5
			c2.7,2,6.9,2.4,10.1,0.7c-0.9,0.5-1.9,1,0,0c1.9-1,0.9-0.5,0,0c3.7-1.9,4.8-5.9,2.3-8.8c-2.5-2.9-7.5-3.7-11.2-1.8
			c-3.1,1.6-4.4,4.7-3.2,7.4l-31.6,16.4l0.1,31.3l-28.4,11.1L2364-770.7z M2440.3-827.7c-0.2,0.1-0.5,0.3-0.6,0.3
			C2439.7-827.4,2439.9-827.5,2440.3-827.7C2441.7-828.4,2441-828,2440.3-827.7c2.9-1.5,6.7-0.9,8.6,1.4c1.9,2.2,1.1,5.3-1.8,6.7
			c-2.9,1.5-6.7,0.9-8.6-1.4C2436.6-823.2,2437.4-826.2,2440.3-827.7z"/>
		<path class="st5" d="M2273.2-745.9c-3.2,1.8-3.9,5.3-1.6,7.8c2.3,2.5,6.8,3.1,10,1.2c2.7-1.5,3.6-4.2,2.5-6.5l22.3-12.7l-0.4-16.8
			l41.5-15.6l0-33.4l12.7-5l21.4,11.6l0,16.2l-7.1,3.1c-2.2-1.8-5.7-2.2-8.6-1c-3.5,1.5-4.7,4.9-2.8,7.6c1.9,2.7,6.3,3.7,9.7,2.2
			c2.9-1.2,4.2-3.8,3.5-6.2l9.1-3.9l0-19.5l-24.9-13.5l-16.8,6.6l0,33.4l-37.7,14.2l-0.2-6.6l30.7-13.2l0-30.3l23.8-12.6l34.1,20.7
			l0,26.5l-62.8,26.1c-2.4-2.2-6.5-2.9-9.9-1.5c1-0.4,1.9-0.8,0,0c-0.7,0.3-1,0.4-1.1,0.5c0.1,0,0.6-0.2,1.1-0.5
			c-3.9,1.7-5.4,5.5-3.4,8.6c2.1,3.1,7,4.3,11,2.6c3.4-1.4,4.9-4.4,4.1-7.1l64.8-27l0-29.8l-37.8-22.9l-27.7,14.6l0,30.1l-30.8,13.2
			l0.7,26.9l-20.7,11.8C2279.4-747.3,2275.9-747.4,2273.2-745.9z M2328.4-757c-3,1.3-6.8,0.3-8.4-2c-1.6-2.4-0.5-5.3,2.6-6.6
			c3-1.3,6.8-0.3,8.4,2C2332.6-761.2,2331.5-758.3,2328.4-757z"/>
		<path class="st5" d="M2673-813.7l-36.5,16.1c-2.2-1.7-5.7-2.2-8.6-0.9c-3.4,1.5-4.7,5-2.7,7.6c1.9,2.7,6.3,3.6,9.8,2.1
			c2.9-1.3,4.2-3.9,3.4-6.2l36.1-16h5v-3l-5.9,0L2673-813.7z"/>
		<path class="st5" d="M2443.4-661.9c0.9,2.8,4.1,4.9,7.9,4.9c4.5,0,8.1-2.9,8.1-6.4c0-3.5-3.6-6.3-8.1-6.3c-3.8,0-7,2.1-7.9,4.9
			l-33.2,0l-0.5,0.2l-36.5,16.1c-2.2-1.7-5.7-2.2-8.6-0.9c-3.4,1.5-4.7,4.9-2.7,7.6c1.9,2.7,6.3,3.6,9.8,2.1
			c2.9-1.3,4.2-3.9,3.4-6.2l36.1-16L2443.4-661.9z M2451.3-668.3c3.4,0,6.2,2.2,6.2,4.9c0,2.7-2.8,4.9-6.2,4.9
			c-3.4,0-6.2-2.2-6.2-4.9C2445.1-666.1,2447.9-668.3,2451.3-668.3z"/>
		<path class="st5" d="M2594.2-722c-3.8,0-7,2.1-7.9,4.9l-33.2,0l-0.5,0.2l-36.5,16.2c-2.2-1.7-5.7-2.2-8.6-0.9
			c-3.4,1.5-4.7,5-2.7,7.6c1.9,2.7,6.3,3.6,9.8,2.1c2.9-1.3,4.2-3.9,3.4-6.2l36.1-16l32.3,0c0.9,2.8,4.1,4.9,7.9,4.9
			c4.5,0,8.1-2.9,8.1-6.4C2602.3-719.1,2598.7-722,2594.2-722z M2594.2-710.7c-3.4,0-6.2-2.2-6.2-4.9c0-2.7,2.8-4.9,6.2-4.9
			c3.4,0,6.2,2.2,6.2,4.9C2600.4-712.9,2597.6-710.7,2594.2-710.7z"/>
		<path class="st5" d="M2500.2-784.5l-19.1-0.1l0-23.8l-63.1,31.8l0,5.3l-88.9,36.7l0,20.5c-3,0.7-5.2,2.8-5.2,5.4
			c0,3.1,3.2,5.6,7.2,5.6c4,0,7.2-2.5,7.2-5.6c0-2.6-2.2-4.7-5.3-5.4l0-18.7l88.9-36.7l0-5.5l41.2-20.8l0,14.2l-102,46.3
			c-2.2-1.7-5.8-2.1-8.6-0.9c-3.4,1.5-4.6,5-2.6,7.7c2,2.7,6.4,3.6,9.8,2c2.9-1.3,4.1-3.9,3.3-6.3l103.9-47.1l0-17.8l10.4-5.3
			l0,21.3l1.9,0l0,6.9l-83.6,41.2c-2.3-1.7-5.8-2-8.6-0.6c-3.3,1.6-4.4,5.1-2.2,7.7c2.1,2.6,6.5,3.4,9.9,1.8c2.8-1.4,3.9-4,3-6.4
			l85.4-42.1l0-8.5l13.4,0.1l0,6.1l-11.2,0l0,11.7l-25.1,22.8l-34.7,0.2l-0.1,46.5c-3,0.6-5.3,2.8-5.3,5.4c0,3.1,3.2,5.6,7.1,5.6
			c4,0,7.2-2.5,7.2-5.6c0-2.6-2.2-4.7-5.2-5.4l0.1-43.5l32.7-0.2l27.1-24.7l0-9.8h7.3l0,9.9l-29.9,28.5l-26.8,0l0,19.8
			c-3,0.7-5.2,2.8-5.2,5.4c0,3.1,3.2,5.6,7.2,5.6c4,0,7.2-2.5,7.2-5.6c0-2.6-2.2-4.7-5.3-5.4l0-16.9l24.8,0l31.9-30.5L2500.2-784.5z
			"/>
		<path class="st5" d="M2388.5-1053.2c2.2,2.4,6.2,3.3,9.6,2.2l6.6,7.2l61.2,0l58.7,29.3l101-0.1l0-25.2l-30-23l0-1h-3.8l0,2.2
			l30,23l0,20.9l-96.1,0.1l-58.7-29.3l-60.3,0l-5.4-5.9c2.4-2.2,2.7-5.4,0.5-7.9c0.7,0.7,1.3,1.4,0,0c0,0,0,0,0,0
			c-2.6-2.8-7.7-3.5-11.3-1.4C2386.7-1060,2385.9-1056.1,2388.5-1053.2z M2391.4-1060.9c2.8-1.6,6.7-1.1,8.7,1.1
			c2,2.2,1.4,5.2-1.4,6.8c-2.8,1.5-6.6,1.1-8.6-1.1c0,0,0,0,0,0c0,0,0,0,0,0C2388-1056.3,2388.7-1059.3,2391.4-1060.9z"/>
		<path class="st5" d="M2401.1-1061.3c0.1,0.1,0.3,0.3,0.6,0.6c0,0,0,0,0,0C2401.4-1060.9,2401.2-1061.1,2401.1-1061.3z"/>
		<path class="st5" d="M2401.1-1061.3C2400.8-1061.5,2400.9-1061.5,2401.1-1061.3L2401.1-1061.3z"/>
		<path class="st5" d="M2251.8-1024.8l0,60.2l57.6,0l54-29.6l-61.9-36.9l0-32.8h-3.8l0,34.3l59.3,35.3l-48.8,26.7l-52.6,0l-0.1-57.2
			c3-0.7,5.3-2.8,5.3-5.4c0-3.1-3.2-5.6-7.2-5.6c-4,0-7.2,2.5-7.2,5.6C2246.5-1027.6,2248.7-1025.4,2251.8-1024.8z"/>
		<path class="st5" d="M2279-1050.9l0,26l42.9,24.2c-1.1,2.3-0.1,5,2.5,6.5c3.2,1.8,7.7,1.2,10-1.3c2.3-2.5,1.6-6-1.6-7.8
			c-2.7-1.5-6.2-1.4-8.7,0.2l-41.4-23.3l0-24.5c3-0.7,5.2-2.8,5.2-5.4c0-3.1-3.2-5.6-7.2-5.6c-4,0-7.2,2.5-7.2,5.6
			C2273.7-1053.7,2276-1051.5,2279-1050.9z"/>
		<path class="st5" d="M2377.3-1021.7C2379.1-1020.6,2378.2-1021.2,2377.3-1021.7L2377.3-1021.7z"/>
		<path class="st5" d="M2376.8-1021.9c-0.3-0.1-0.4-0.2-0.5-0.3C2376.4-1022.2,2376.6-1022.1,2376.8-1021.9z"/>
		<path class="st5" d="M2377.3-1021.7c-0.2-0.1-0.3-0.2-0.5-0.3C2377-1021.9,2377.1-1021.8,2377.3-1021.7z"/>
		<polygon class="st5" points="2534.5,-1024.3 2614.5,-1024.3 2614.5,-1035 2586.8,-1059 2538.8,-1058.5 2538.8,-1063.8 
			2535,-1063.8 2535,-1055.5 2585.2,-1056 2610.7,-1033.9 2610.7,-1027.3 2535.6,-1027.3 2473.8,-1056.8 2473.8,-1063.8 
			2470,-1063.8 2470,-1055.1 		"/>
		<path class="st5" d="M2268-995.7l0,20.9l23.9,0l11.5-6.2c2.7,2,6.9,2.4,10.1,0.7c3.7-2,4.7-5.9,2.2-8.8c-2.5-2.9-7.5-3.7-11.3-1.7
			c-3.1,1.6-4.3,4.7-3.1,7.4l-10.6,5.7l-19,0l0-17.9c3-0.7,5.3-2.8,5.2-5.4c0-3.1-3.2-5.6-7.2-5.6c-4,0-7.2,2.5-7.2,5.6
			C2262.8-998.5,2265-996.4,2268-995.7z M2305.6-989.6c2.9-1.5,6.7-0.9,8.6,1.3c1.9,2.2,1.1,5.3-1.7,6.7c-2.9,1.5-6.7,0.9-8.6-1.3
			C2302-985.1,2302.8-988.1,2305.6-989.6z"/>
		<path class="st5" d="M2237.6-1001.6c-2.4-2.9-7.5-3.7-11.2-1.8c-3.7,1.9-4.8,5.9-2.3,8.8c2.1,2.5,6,3.4,9.4,2.5l7.2,8.4l-0.2,14.9
			l-22.9-0.2c-0.8-2.4-3.6-4.1-6.9-4.2c-4,0-7.2,2.5-7.2,5.6c0,3.1,3.1,5.6,7.1,5.7c3.3,0,6.1-1.7,6.9-4.1l26.7,0.2l0.2-18.7
			l-7.8-9.1C2239.2-995.7,2239.7-999,2237.6-1001.6z M2234.2-994c-2.9,1.5-6.7,0.8-8.6-1.4c-1.9-2.3-1.1-5.3,1.8-6.7
			c2.9-1.5,6.7-0.8,8.6,1.4C2237.9-998.5,2237.1-995.5,2234.2-994z"/>
		<path class="st5" d="M2304.6-990.9C2308.3-992.8,2300.9-988.9,2304.6-990.9L2304.6-990.9z"/>
		<path class="st5" d="M2439-1060.3C2438.1-1060.8,2437.1-1061.3,2439-1060.3L2439-1060.3z"/>
		<path class="st5" d="M2439-1060.3C2439-1060.3,2439-1060.3,2439-1060.3c3.7,1.9,8.8,1.1,11.2-1.8c0.4-0.5,0.7-1.1,0.9-1.7h-2
			c-0.2,0.3-0.3,0.6-0.6,0.8c-1.9,2.2-5.7,2.9-8.6,1.4c-1.1-0.6-1.9-1.3-2.3-2.2h-2C2436.2-1062.5,2437.4-1061.2,2439-1060.3z"/>
		<polygon class="st5" points="2369.4,-1063.8 2362.7,-1063.8 2360,-1062.4 2356.3,-1063.8 2347.8,-1063.8 2360.3,-1058.9 		"/>
		<polygon class="st5" points="2388.4,-1063.8 2382.2,-1063.8 2360.1,-1050.4 2336.3,-1062.9 2336.3,-1063.8 2332.5,-1063.8 
			2332.5,-1061.3 2360.3,-1046.7 		"/>
		<path class="st5" d="M2490.6-1054.6c2.9,1.3,6.4,0.8,8.6-0.9l37,16.3l33.3,0c0.9,2.8,4.1,4.9,7.9,4.9c4.5,0,8.1-2.8,8.1-6.4
			c0-3.5-3.6-6.4-8.1-6.4c-3.8,0-7,2.1-7.9,4.9l-32.3,0l-36.1-15.9c0.7-2.1-0.3-4.4-2.5-5.7h-8.9c-0.7,0.4-1.3,1-1.8,1.6
			C2485.9-1059.5,2487.1-1056.1,2490.6-1054.6z M2577.3-1045.6c3.4,0,6.2,2.2,6.2,4.9c0,2.7-2.8,4.9-6.2,4.9c-3.4,0-6.2-2.2-6.2-4.9
			C2571.1-1043.4,2573.8-1045.6,2577.3-1045.6z"/>
		<path class="st5" d="M2185.7-940.8c-3.6,0.7-6.2,3.2-6.2,6.2c0,3.5,3.6,6.4,8.1,6.4c4.5,0,8.1-2.9,8.1-6.4c0-3-2.6-5.5-6.2-6.2
			l0-14.2c-1.3,0-2.5,0-3.8,0L2185.7-940.8z M2193.8-934.6c0,2.7-2.8,4.9-6.2,4.9c-3.4,0-6.2-2.2-6.2-4.9c0-2.7,2.8-4.9,6.2-4.9
			C2191-939.4,2193.8-937.3,2193.8-934.6z"/>
		<path class="st5" d="M2214.2-1003.6c-3.4-1.5-7.8-0.6-9.8,2.1c-1.6,2.2-1,5,1.2,6.7l-20,27.9l0,11.9c1.3,0,2.5,0,3.8,0l0-11.1
			l19.5-27.2c3,0.6,6.3-0.4,8-2.7C2218.8-998.6,2217.6-1002.1,2214.2-1003.6z"/>
		<path class="st5" d="M2366-1020.3c-2.7,2.8-1.9,6.8,1.7,8.9c3,1.8,7.1,1.6,9.9-0.2l12.2,6.9l62.4,0l-16,22l-47.3,0
			c-0.9-2.8-4.1-4.9-7.9-4.8c-4.5,0-8.1,2.8-8.1,6.4c0,3.5,3.7,6.4,8.1,6.4c3.8,0,7-2.1,7.9-4.9l49.5,0l18.1-25l44.1,0l-41.2-22.4
			l-34.1,0c-0.8-2.4-3.6-4.1-6.9-4.1c-3.9,0-7.2,2.5-7.1,5.6c0,3.1,3.2,5.6,7.2,5.6c3.3,0,6.1-1.7,6.9-4.1l32.9,0l30.2,16.4
			l-97.4,0.1l-11.1-6.2c1.5-2.7,0.5-5.9-2.6-7.7C2373.7-1023.8,2368.6-1023.1,2366-1020.3z M2381-976.5c-3.4,0-6.2-2.2-6.2-4.9
			c0-2.7,2.8-4.9,6.2-4.9c3.4,0,6.2,2.2,6.2,4.9C2387.2-978.6,2384.4-976.5,2381-976.5z M2368-1013.1c0,0,0.2,0.1,0.3,0.2
			C2368.2-1013,2368.1-1013.1,2368-1013.1z M2377.5-1013.7c-2,2.2-5.9,2.6-8.7,1c0.7,0.4,1.4,0.8,0,0c0,0,0,0,0,0
			c-2.7-1.6-3.3-4.6-1.3-6.8c2-2.2,5.9-2.6,8.7-1C2378.9-1018.9,2379.5-1015.8,2377.5-1013.7z"/>
		<path class="st5" d="M2407-919.8c-0.1,0-0.1,0.1-0.3,0.2C2406.8-919.7,2407-919.8,2407-919.8z"/>
		<path class="st5" d="M2406-919.2c0.2-0.1,0.4-0.2,0.6-0.3C2406.4-919.5,2406.2-919.4,2406-919.2z"/>
		<path class="st5" d="M2406-919.2c-0.2,0.1-0.4,0.2-0.5,0.3C2405.6-919,2405.8-919.1,2406-919.2z"/>
		<path class="st5" d="M2405.3-918.9c-0.2,0.1-0.3,0.2-0.3,0.2C2405.1-918.7,2405.2-918.8,2405.3-918.9z"/>
		<path class="st5" d="M2094.7-422.1l-0.2-265.6c3-0.7,5.3-2.8,5.3-5.4c0-3.1-3.2-5.6-7.2-5.6c-4,0-7.2,2.5-7.2,5.6
			c0,2.6,2.2,4.7,5.3,5.4l0.2,263.9l-7-3l-0.1-87.6l-20.5-21.4c2.3-2.2,2.6-5.5,0.3-7.9c-2.7-2.8-7.8-3.4-11.3-1.3
			c-3.6,2.1-4.3,6.1-1.6,8.9c2.3,2.4,6.3,3.2,9.7,2l19.8,20.7l0.1,85l-18.4-7.8l-0.1-68c3-0.6,5.2-2.8,5.2-5.4
			c0-3.1-3.2-5.6-7.2-5.6c-3.9,0-7.2,2.5-7.2,5.6c0,2.6,2.2,4.7,5.3,5.4l0.1,66.3l-16.6-7l-0.1-96.6l25.5-25.2
			c2.9,1,6.4,0.3,8.4-1.7c2.5-2.4,1.9-6-1.2-7.9c-3.1-1.9-7.6-1.5-10.1,0.9c-2.1,2-2,4.8-0.2,6.8l-26.3,26.1l0.1,96l-8.2-3.5
			l-0.1-96.1l51.9-60.2l0-63.4c3-0.6,5.2-2.8,5.2-5.4c0-3.1-3.2-5.6-7.2-5.6c-4,0-7.1,2.5-7.1,5.6c0,2.6,2.2,4.7,5.3,5.4l0.1,62.5
			l-48.1,55.8l0-10l41-46.9l-0.1-60.9l-94.7,0l-35.2-25.1c1.4-2.2,0.9-4.9-1.6-6.7c-2.9-2.1-7.5-1.9-10.1,0.4
			c-2.7,2.3-2.5,5.8,0.5,7.9c2.4,1.7,6,1.9,8.6,0.6l36.3,25.9l92.4,0l0,56.9l-41,46.9l0.1,114.2l70.5,29.9l0,0.9h3.8l0-2.6l-1-0.5
			L2094.7-422.1z M2060.8-535.9c-2.7,1.6-6.6,1.2-8.7-1c-2.1-2.1-1.5-5.2,1.3-6.8c2.7-1.6,6.6-1.2,8.7,1
			C2064.1-540.6,2063.5-537.6,2060.8-535.9z"/>
		<polygon class="st5" points="1966.6,-492.5 1966.5,-577.7 1939.3,-603.7 1902.4,-603.7 1887.6,-625.3 1863,-625.3 1855.1,-633.5 
			1855.1,-628.5 1861,-622.3 1885.4,-622.3 1900.1,-600.7 1937.5,-600.8 1962.7,-576.6 1962.8,-491.6 2001.7,-445.5 2001.7,-417.3 
			2005.6,-417.3 2005.5,-446.4 		"/>
		<path class="st5" d="M2015.1-563.3l-44.5-47.6l-59.3,0l-13.4-22.8l0-14.3c3-0.7,5.3-2.8,5.3-5.4c0-3.1-3.2-5.6-7.2-5.6
			c-4,0-7.2,2.5-7.2,5.6c0,2.6,2.2,4.7,5.3,5.4l0,14.9l14.8,25.1l59.8,0l42.7,45.6l0.1,120.2l61.6,24.8h8.3l-66.1-26.7L2015.1-563.3
			z"/>
		<polygon class="st5" points="2013.5,-417.3 2017.3,-417.3 2017.3,-427.3 2042.5,-417.3 2050.9,-417.3 2013.5,-432.2 		"/>
		<path class="st5" d="M1956.2-489l0-47.9l-9.2-5.1c1.4-2.7,0.3-5.8-2.8-7.6c-3.6-2-8.7-1.4-11.3,1.5c-2.6,2.8-1.8,6.8,1.9,8.9
			c3.1,1.7,7.2,1.5,10-0.4l7.6,4.2l0,47.3l37.5,45.9l0,25h3.8l0-25.9L1956.2-489z M1944.6-541.6c-2,2.2-5.8,2.7-8.6,1.1c0,0,0,0,0,0
			c0,0,0,0-0.1,0c-2.7-1.6-3.4-4.6-1.4-6.8c2-2.2,5.9-2.7,8.7-1.1C1945.9-546.8,1946.6-543.8,1944.6-541.6z"/>
		<polygon class="st5" points="1855.1,-442.2 1855.1,-439.2 1864.3,-439.2 1884.1,-417.3 1888.8,-417.3 1866.3,-442.2 		"/>
		<path class="st5" d="M1943.4-550.1C1943.1-550.2,1943.1-550.3,1943.4-550.1L1943.4-550.1z"/>
		<path class="st5" d="M1945.1-549.2C1945.3-549,1945.4-549,1945.1-549.2L1945.1-549.2z"/>
		<polygon class="st5" points="1855.1,-425.7 1862.2,-417.3 1866.7,-417.3 1855.1,-431.2 		"/>
		<path class="st5" d="M1915.7-635.9l0-29.3c3-0.7,5.3-2.8,5.3-5.4c0-3.1-3.2-5.6-7.2-5.6c-3.9,0-7.2,2.5-7.1,5.6
			c0,2.6,2.2,4.7,5.3,5.4l0,29.9l9,17.7l51.5,0l47.2,48.4l37.7-42.3l0-45.1l-76.9,0c-0.8-2.4-3.6-4.1-6.9-4.1c-4,0-7.2,2.5-7.2,5.6
			c0,3.1,3.2,5.6,7.2,5.6c3.3,0,6.1-1.7,6.9-4.1l73.1,0l0,41.2l-34,38.2l-45.2-46.4l-50.8,0L1915.7-635.9z"/>
		<path class="st5" d="M1947.1-635.4c-0.8-2.4-3.6-4.1-6.9-4.1c-4,0-7.2,2.5-7.2,5.6c0,3.1,3.2,5.6,7.2,5.6c3.3,0,6.1-1.7,6.9-4.1
			l31.3,0l29.8,32.4c-2,1.9-2.2,4.7-0.2,6.8c2.3,2.5,6.8,3.1,10,1.3c3.2-1.8,3.9-5.3,1.6-7.8c-1.9-2.1-5.4-2.8-8.3-2l-31-33.6
			L1947.1-635.4z"/>
		<path class="st5" d="M2402.7-423.3c-0.8-2.4-3.6-4.1-6.9-4.1c-4,0-7.2,2.5-7.2,5.6c0,1.9,1.2,3.5,2.9,4.5h8.4
			c1.3-0.7,2.2-1.8,2.7-3l31.3,0l2.8,3h4.7l-5.6-6L2402.7-423.3z"/>
		<path class="st5" d="M2005.7-549.1l-8.5-9.1c2.3-2.2,2.5-5.4,0.3-7.8c0.6,0.7,1.3,1.3,0,0c-1.3-1.4-0.7-0.7,0,0
			c-2.7-2.8-7.7-3.4-11.3-1.3c-3.6,2.1-4.4,6.1-1.7,8.9c2.3,2.4,6.3,3.2,9.7,2.1l8.1,8.7l0.1,76.3l-21-23.7l0-25.8
			c3-0.6,5.3-2.8,5.3-5.4c0-3.1-3.2-5.6-7.2-5.6c-4,0-7.2,2.5-7.2,5.6c0,2.6,2.2,4.7,5.3,5.4l0,26.7l28.7,32.2l-0.1-86.8
			L2005.7-549.1z M1994.7-558.3c-2.8,1.6-6.7,1.1-8.7-1c-2-2.2-1.4-5.2,1.3-6.8c2.8-1.6,6.7-1.1,8.7,1
			C1998.1-562.9,1997.5-559.9,1994.7-558.3z"/>
		<path class="st5" d="M1941.9-485.8l-18.6,0l-27.4-31.2c2-1.9,2.3-4.7,0.4-6.8c-2.3-2.5-6.7-3.2-10-1.4c-3.3,1.8-4.1,5.2-1.8,7.8
			c1.9,2.1,5.3,2.9,8.2,2.1l28.6,32.5l18.4,0l37.8,48.3l0,17.2h3.8l0-18L1941.9-485.8z"/>
		<path class="st5" d="M1915.6-447.8c3.6-0.7,6.2-3.2,6.2-6.2c-0.1-3.5-3.7-6.3-8.2-6.3c-4.5,0-8.1,2.9-8,6.4c0.1,3,2.7,5.4,6.2,6.1
			l0.3,15.9l25.6,0l-0.2,14.6h3.8l0.3-17.6l-25.7,0L1915.6-447.8z M1907.4-453.9c0-2.7,2.7-4.9,6.1-4.9c3.4,0,6.2,2.1,6.3,4.8
			c0-0.7,0-1.3,0,0c0,1.3,0,0.7,0,0c0,2.7-2.7,4.9-6.1,4.9C1910.3-449,1907.5-451.2,1907.4-453.9z"/>
		<path class="st5" d="M1905.5-454.6C1905.5-455,1905.5-454.9,1905.5-454.6L1905.5-454.6z"/>
		<path class="st5" d="M1905.5-454.6c0,0.1,0,0.3,0,0.4C1905.5-454.4,1905.5-454.5,1905.5-454.6z"/>
		<path class="st5" d="M1905.6-453.1C1905.6-452.7,1905.6-452.8,1905.6-453.1L1905.6-453.1z"/>
		<path class="st5" d="M1898.2-428.2l-0.2-34.7c3-0.7,5.2-2.8,5.2-5.4c0-3.1-3.2-5.6-7.2-5.6c-4,0-7.1,2.5-7.1,5.6
			c0,2.6,2.3,4.7,5.3,5.4l0.2,37.7l32.5,0l0,7.9h3.8l0-10.9L1898.2-428.2z"/>
		<path class="st5" d="M1863.8-452.3c-0.8-2.4-3.6-4.1-6.9-4.1c-0.6,0-1.2,0.1-1.8,0.2v10.8c0.6,0.1,1.2,0.2,1.8,0.2
			c3.3,0,6.1-1.7,6.9-4.1h2.9l27.7,32h4.6l-30.3-35H1863.8z"/>
		<path class="st5" d="M2044.2-644l-26.7,0c-0.8-2.4-3.6-4.1-6.9-4.1c-4,0-7.2,2.5-7.2,5.6c0,3.1,3.2,5.6,7.2,5.6
			c3.3,0,6.1-1.7,6.9-4.1l22.9,0l0,14.9l-7.2,8.3c-3.4-1-7.4,0-9.5,2.5c-2.5,2.9-1.5,6.9,2.2,8.8c3.7,1.9,8.8,1.2,11.3-1.8
			c2.1-2.5,1.7-5.8-0.8-7.9l7.8-9.1L2044.2-644z M2025-614.2C2024.8-613.9,2024.6-613.8,2025-614.2L2025-614.2z M2035.7-609.2
			c-1.9,2.2-5.8,2.8-8.6,1.3c-2.8-1.5-3.6-4.5-1.8-6.7c0,0,0,0,0,0c1.9-2.2,5.8-2.8,8.6-1.3C2036.8-614.4,2037.6-611.4,2035.7-609.2
			z"/>
		<path class="st5" d="M2037.2-608.3c0.3-0.3,0.5-0.5,0.6-0.7C2037.7-608.9,2037.5-608.6,2037.2-608.3z"/>
		<path class="st5" d="M2037.2-608.3c-0.3,0.3-0.5,0.5-0.6,0.7C2036.8-607.9,2037-608.1,2037.2-608.3z"/>
		<polygon class="st5" points="1855.1,-576.9 1855.1,-570.8 1856.3,-569.2 1855.1,-568.2 1855.1,-563.5 1860.9,-568.9 		"/>
		<path class="st5" d="M1902.8-534.3l19.8,23.4c-2.6,2.1-3.1,5.4-0.9,7.9c2.5,2.9,7.5,3.7,11.2,1.8c3.7-1.9,4.8-5.9,2.3-8.8
			c-2.1-2.5-6-3.4-9.4-2.5l-20.9-24.8l-39.9,0.1l-9.8-15.5v6.7l7.5,11.8L1902.8-534.3z M1925-510.6c2.9-1.5,6.7-0.8,8.6,1.4
			c0.9,1.1,0.5,0.6,0,0c1.9,2.2,1.1,5.3-1.8,6.7c-2.9,1.5-6.7,0.9-8.6-1.4C1921.4-506.1,1922.2-509.1,1925-510.6z"/>
		<path class="st5" d="M1921.7-503C1919.2-506,1924.1-500.1,1921.7-503L1921.7-503z"/>
		<path class="st5" d="M1923.3-542.2l29.3-29.6l-18.7-21.7l-38.5,0l-16.9-24.1l-23.3,0.4v3l8.5-0.1l19.9,32.5l42.6,0l6.3,9.9
			l-14.8,16.8l-20.6,0l-3.9-5.5c2.3-1.7,2.9-4.5,1.3-6.7c-1.9-2.7-6.3-3.7-9.7-2.2c-3.5,1.5-4.7,4.9-2.8,7.6
			c1.6,2.3,4.9,3.3,7.9,2.7l5,7.1l24.9,0l17.2-19.5l-8.4-13.2l-42.6,0l-18.1-29.6l8.4-0.1l16.9,24.1l38.7,0l16,18.6l-26.5,26.7
			l-33.9,0l-32.4-47.8v6.4l30.1,44.4L1923.3-542.2z"/>
		<path class="st5" d="M1856.1-602c-0.3-0.4-0.6-0.8-0.9-1.1v8.1C1857.2-596.9,1857.6-599.7,1856.1-602z"/>
		<path class="st5" d="M1962.1-434.3l-20.6-28.6c2.2-1.7,2.8-4.5,1.2-6.7c-1.9-2.7-6.3-3.6-9.8-2.1c-3.4,1.5-4.7,4.9-2.7,7.6
			c1.6,2.2,4.9,3.3,8,2.7l20.4,28.2l0,15.9h3.8l0-16.7L1962.1-434.3z"/>
		<polygon class="st5" points="1878.6,-477.2 1909,-477.3 1868.4,-526.6 1861.6,-526.6 1855.1,-536.3 1855.1,-529.9 1859.3,-523.7 
			1866.3,-523.7 1892.8,-491.4 1874.7,-491.4 1855.1,-517.8 1855.1,-511.9 1872.5,-488.4 1895.3,-488.4 1902,-480.2 1874.8,-480.2 
			1874.8,-478.7 1866,-478.7 1855.1,-492.3 1855.1,-486.7 1863.9,-475.7 1874.8,-475.7 1874.7,-465.3 1866.9,-465.2 1866.9,-474 
			1855.1,-474 1855.1,-471 1863.1,-471 1863.1,-465.2 1855.1,-465.2 1855.1,-462.3 2647.1,-847.1 		"/>
		<path class="st5" d="M2336-439.6l10.8-22.1c3.1,0.2,6.2-1.2,7.4-3.6c1.4-2.9-0.4-6.1-4.1-7.2c-3.7-1.1-7.8,0.3-9.2,3.2
			c-1.2,2.4-0.1,5.1,2.5,6.5l-9.9,20.2l-33.6,0.1l-22.6,25.1h4.7l19.9-22.2L2336-439.6z"/>
		<path class="st5" d="M2213.6-488.3l0-47.3l7.5-4.3c2.8,1.9,6.9,2.1,10,0.4c-0.9,0.5-1.8,1,0,0c1.8-1,0.9-0.5,0,0
			c3.6-2,4.5-6,1.9-8.9c-2.6-2.9-7.7-3.5-11.3-1.5c-3.1,1.7-4.2,4.9-2.8,7.5l-9.1,5.2l0,47.9l-37.5,45.9l0,25.9h3.8l0-25.1
			L2213.6-488.3z M2222.7-548.5C2222.7-548.5,2222.7-548.5,2222.7-548.5C2222.8-548.6,2222.8-548.6,2222.7-548.5
			c2.8-1.6,6.7-1.1,8.7,1.1c2,2.2,1.4,5.2-1.4,6.8c-2.8,1.6-6.7,1.1-8.7-1.1C2219.3-543.9,2220-547,2222.7-548.5z"/>
		<path class="st5" d="M2382.4-480c1.7-3.2-0.3-7-4.5-8.3c-4.1-1.3-8.9,0.2-10.6,3.5c0,0,0,0,0,0c-1.4,2.8-0.1,6,2.9,7.6l-23.8,45.6
			l-35.4,0l-11.9,14.3h4.5l9.4-11.3l35.9,0l24.8-47.5C2377.4-475.7,2381-477.2,2382.4-480z M2369.1-484.2c1.3-2.5,4.9-3.7,8.1-2.7
			c3.2,1,4.7,3.9,3.4,6.3c-1.3,2.5-4.9,3.7-8.1,2.7C2369.4-478.8,2367.8-481.7,2369.1-484.2z"/>
		<path class="st5" d="M2259-670.8c0-3.1-3.2-5.6-7.2-5.6c-3.9,0-7.2,2.5-7.1,5.6c0,2.6,2.2,4.7,5.3,5.4l0,29.3l-7.8,15.3l-50.8,0
			l-45.1,46.4l-34.1-38.2l0-41.2l73.1,0c0.8,2.4,3.6,4.1,6.9,4.1c4,0,7.2-2.5,7.2-5.6c0-3.1-3.2-5.6-7.2-5.6c-3.3,0-6.1,1.8-6.9,4.1
			l-76.9,0l0,45.1l37.8,42.3l47.1-48.5l51.5,0l9-17.7l0-29.9C2256.8-666.1,2259-668.2,2259-670.8z"/>
		<path class="st5" d="M2218.6-632.5c0.8,2.4,3.6,4.1,6.9,4.1c4,0,7.2-2.5,7.2-5.6c0-3.1-3.2-5.6-7.2-5.6c-3.3,0-6.1,1.7-6.9,4.1
			l-33.2,0l-30.9,33.6c-2.9-0.9-6.4-0.1-8.3,2c-2.3,2.5-1.6,6,1.6,7.8c3.2,1.8,7.7,1.2,10-1.3c1.9-2.1,1.7-4.9-0.2-6.8l29.8-32.4
			L2218.6-632.5z"/>
		<path class="st5" d="M2419.7-436.5c4,0,7.2-2.5,7.2-5.6c0-3.1-3.2-5.6-7.2-5.6c-3.3,0-6.1,1.8-6.9,4.1l-33.2,0l-24.2,26.3h4.7
			l21.4-23.3l31.3,0C2413.7-438.2,2416.5-436.5,2419.7-436.5z"/>
		<path class="st5" d="M2181.3-558.5C2180.7-557.8,2180-557.1,2181.3-558.5L2181.3-558.5z"/>
		<path class="st5" d="M2181.3-558.5c0.4-0.4,0.6-0.7,0.7-0.8C2181.9-559.2,2181.6-558.8,2181.3-558.5z"/>
		<path class="st5" d="M2184.7-435.4l0,18.1h3.8l0-17.3l37.7-48.4l18.4,0l28.5-32.5c3,0.8,6.4,0,8.2-2.1c2.2-2.6,1.4-6-1.8-7.8
			c-3.3-1.8-7.7-1.1-10,1.4c-1.9,2.1-1.6,4.9,0.4,6.8l-27.4,31.2l-18.6,0"/>
		<path class="st5" d="M2254-432l0.3-15.9c3.5-0.7,6.2-3.1,6.2-6.1c0.1-3.5-3.5-6.4-8-6.4c-4.5,0-8.2,2.8-8.2,6.3
			c0,3,2.6,5.6,6.2,6.2l-0.3,12.9l-25.7,0l0.3,17.7h3.8l-0.3-14.7L2254-432z M2246.2-454.2c0-2.7,2.9-4.8,6.3-4.8
			c3.4,0,6.2,2.2,6.1,4.9c0,2.7-2.9,4.8-6.3,4.8C2248.9-449.3,2246.1-451.5,2246.2-454.2z"/>
		<path class="st5" d="M2244.3-453.4C2244.2-453.1,2244.2-453.1,2244.3-453.4L2244.3-453.4z"/>
		<path class="st5" d="M2244.3-453.4c0-0.1,0-0.3,0-0.5C2244.3-453.7,2244.3-453.5,2244.3-453.4z"/>
		<path class="st5" d="M2244.3-455C2244.3-455.2,2244.3-455.3,2244.3-455L2244.3-455z"/>
		<path class="st5" d="M2302.2-449.5c0.8,2.4,3.6,4.1,6.9,4.1c4,0,7.2-2.5,7.2-5.6c0-3.1-3.2-5.6-7.2-5.6c-3.3,0-6.1,1.7-6.9,4.1
			h-4.9l-30.4,35.2h4.6l27.8-32.2L2302.2-449.5z"/>
		<path class="st5" d="M2271.7-425.4l0.1-37.7c3-0.6,5.3-2.8,5.3-5.4c0-3.1-3.2-5.6-7.1-5.6c-3.9,0-7.2,2.5-7.2,5.6
			c0,2.6,2.2,4.8,5.2,5.4l-0.1,34.8l-32.5,0l0,11.1h3.8l0-8.1L2271.7-425.4z"/>
		<path class="st5" d="M2155.1-637c4,0,7.2-2.5,7.2-5.6c0-3.1-3.2-5.6-7.2-5.6c-3.3,0-6.1,1.7-6.9,4.1l-26.7,0l0,18.7l7.9,9
			c-2.6,2.1-3,5.4-0.9,7.9c2.5,2.9,7.5,3.7,11.3,1.7c3.7-1.9,4.7-5.9,2.2-8.8c-2.1-2.5-6-3.4-9.4-2.5l-7.3-8.3l0-14.9l22.9,0
			C2149-638.7,2151.8-637,2155.1-637z M2131.8-616c2.8-1.5,6.7-0.9,8.6,1.3c1.9,2.2,1.1,5.2-1.7,6.7c-2.8,1.5-6.7,0.9-8.6-1.3
			C2128.2-611.5,2129-614.5,2131.8-616z"/>
		<path class="st5" d="M2142-615.5C2144.5-612.6,2139.5-618.4,2142-615.5L2142-615.5z"/>
		<path class="st5" d="M2303.3-534.5l16.3-25.7l-10-9.3l6.9-9.5l14.3,0.8l18.6-29.9l14.3,0c0.8,2.4,3.6,4.1,6.9,4.1
			c4,0,7.2-2.5,7.2-5.6c0-3.1-3.2-5.6-7.2-5.6c-3.3,0-6.1,1.7-6.9,4.1l-16.7,0l-18.5,29.7l-14.2-0.8l-9.4,13l10.1,9.4l-14.1,22.3
			l-39.9,0l-20.8,24.8c-3.4-1-7.4,0-9.5,2.5c0.6-0.7,1.2-1.5,0,0c-1.2,1.5-0.6,0.7,0,0c-2.5,2.9-1.4,6.9,2.3,8.8
			c3.7,1.9,8.8,1.1,11.2-1.8c2.1-2.5,1.6-5.7-0.9-7.8l19.7-23.5L2303.3-534.5z M2242.7-504C2242.7-504,2242.7-504,2242.7-504
			c-1.9,2.3-5.7,2.9-8.6,1.4c-2.9-1.5-3.7-4.5-1.8-6.7c1.9-2.2,5.7-2.9,8.6-1.4C2243.8-509.3,2244.6-506.3,2242.7-504z"/>
		<path class="st5" d="M2536.9-727c-3.3,0-6.1,1.7-6.9,4.1l-16.7,0l-18.5,26.7l-14.2-0.8l-9.4,13l10.1,9.4l-14.1,22.3l-39.9,0
			l-15.8,26.9c-3.4-1-7.4,0-9.5,2.5c0.2-0.2,0.4-0.5,0.5-0.6c-0.1,0.1-0.3,0.3-0.5,0.6c-1.2,1.5-0.6,0.7,0,0
			c-2.5,2.9-1.4,6.9,2.3,8.8c3.7,1.9,8.8,1.1,11.2-1.8c2.1-2.5,1.6-5.7-0.9-7.8l14.7-25.6l40.2,0l16.3-25.7l-10-9.3l6.9-9.5
			l14.3,0.8l18.6-26.8l14.3,0c0.8,2.4,3.6,4.1,6.9,4.1c4,0,7.2-2.5,7.2-5.6C2544.1-724.5,2540.9-727,2536.9-727z M2414-616.9
			C2414-616.9,2414-616.8,2414-616.9C2414-616.8,2414-616.8,2414-616.9c-2,2.3-5.8,2.9-8.7,1.5c-2.9-1.5-3.7-4.5-1.8-6.7
			c1.9-2.2,5.7-2.9,8.6-1.4C2415-622.1,2415.8-619.1,2414-616.9z"/>
		<path class="st5" d="M2402.5-623.6C2402.8-623.9,2402.7-623.8,2402.5-623.6L2402.5-623.6z"/>
		<path class="st5" d="M2347-492.5l0.2-25.6l55.6-0.2c0.8,2.4,3.6,4.1,6.9,4.1c4,0,7.2-2.5,7.1-5.6c0-3.1-3.2-5.6-7.2-5.6
			c-3.3,0-6.1,1.8-6.9,4.1l-59.4,0.2l-0.2,27.2l-29.1,19.7l-15,0l0,8.7l-7.8,0l-0.1-10.5l10.9,0l0.6-0.7l53-66.2
			c3,0.7,6.4-0.2,8.1-2.4c2.1-2.6,1.1-6.1-2.3-7.7c-3.3-1.6-7.8-0.9-9.9,1.8c-1.7,2.2-1.3,5,0.8,6.8L2300-479l-8.8,0l0-1.5l-27.2,0
			l6.7-8.2l22.8,0l60-81.4c3,0.6,6.3-0.4,8-2.6c2-2.7,0.8-6.1-2.6-7.7c-3.4-1.5-7.8-0.6-9.8,2.1c-1.6,2.2-1.1,5,1.1,6.7l-58.9,79.9
			l-18.1,0l26.5-32.3l7,0l46.7-69.7l23.9,0c0.8,2.4,3.6,4.1,6.9,4.1c4,0,7.2-2.5,7.2-5.6c0-3.1-3.2-5.6-7.2-5.6
			c-3.3,0-6.1,1.7-6.9,4.1l-26.2,0l-46.7,69.7h-6.8l-40.5,49.4l30.4,0l0.1,15l29.4,0l38.8-25l0-19.4l21.5,0c0.8,2.4,3.6,4.1,6.9,4.1
			c4,0,7.2-2.5,7.2-5.6c0-3.1-3.2-5.6-7.2-5.6c-3.3,0-6.1,1.7-6.9,4.1l-25.3,0l0,21l-36.4,23.4l-12.6,0l0-5.7l12.6,0L2347-492.5z"/>
		<path class="st5" d="M2324.1-596.3c0.3-0.4,0.5-0.8,0.6-0.9C2324.6-597.1,2324.5-596.9,2324.1-596.3z"/>
		<path class="st5" d="M2287.3-617.7l-16.8,24.1l-38.5,0l-18.7,21.7l29.3,29.5l38.1,0l34.3-50.8c3.6,0.7,7.4-0.6,9.2-3.2
			c2.1-3.1,0.6-7-3.4-8.6c-4-1.6-8.9-0.4-11,2.7c-1.8,2.6-0.9,5.8,1.8,7.7l-33.2,49.2l-33.9,0L2218-572l16-18.6l38.7,0l16.8-24.1
			l8.4,0.1l-18,29.6l-42.6,0l-8.4,13.2l17.2,19.5l24.9,0l5-7.1c3.1,0.6,6.3-0.5,7.9-2.8c1.9-2.7,0.6-6.1-2.8-7.6s-7.8-0.5-9.7,2.2
			c-1.6,2.3-1,5,1.3,6.7l-3.9,5.5l-20.6,0l-14.8-16.8l6.3-10l42.6,0l19.8-32.5l21.5,0.3l16.2-17.5c2.9,0.9,6.4,0.1,8.3-2
			c2.3-2.5,1.6-6-1.6-7.8c-3.2-1.8-7.7-1.3-10,1.2c-1.9,2.1-1.8,4.9,0.2,6.8l-15.1,16.3L2287.3-617.7z M2311.4-601.6
			c1.6-2.4,5.4-3.3,8.4-2c3,1.3,4.2,4.2,2.6,6.6c-1.6,2.4-5.4,3.3-8.4,2C2311-596.3,2309.8-599.2,2311.4-601.6z"/>
		<path class="st5" d="M2324.1-596.3c-0.2,0.4-0.4,0.6-0.5,0.7C2323.7-595.8,2323.9-596.1,2324.1-596.3z"/>
		<path class="st5" d="M2227.8-461.6c3.1,0.6,6.4-0.4,8-2.7c1.9-2.7,0.7-6.1-2.7-7.6c-3.4-1.5-7.8-0.6-9.8,2.1c-1.6,2.2-1,5,1.2,6.7
			l-20.8,28.9l0,16.9h3.8l0-16.1L2227.8-461.6z"/>
		<path class="st5" d="M2203.2-491.7l-0.1-85.1l25.2-24.1l37.3,0l14.7-21.6l24.3,0l13.1-13.9c2.9,0.9,6.4,0.2,8.3-1.9
			c2.4-2.5,1.7-6-1.5-7.8c-3.2-1.8-7.7-1.3-10,1.2c-2,2.1-1.8,4.8,0.1,6.8l-12,12.7l-24.7,0l-14.7,21.6l-36.8,0l-27.2,26.1l0.1,85.2
			l-38.9,46.1l0,29.2h3.8l0-28.3L2203.2-491.7z"/>
		<path class="st5" d="M2131-468.4c0-3.1-3.2-5.6-7.2-5.6c-4,0-7.2,2.5-7.1,5.6c0,2.6,2.3,4.7,5.3,5.4l0.1,22.3l31.3,18.7l-0.1-70.7
			l-41-18.7l-0.1-55.2c3-0.7,5.3-2.8,5.3-5.4c0-3.1-3.2-5.6-7.2-5.6c-4,0-7.2,2.5-7.2,5.6c0,2.6,2.2,4.8,5.3,5.4l0.1,132.5
			l30.4,16.7h6.6l-33.2-18.3l-0.1-72.3l37.1,17l0.1,62.9l-23.6-14.2l-0.1-20.9C2128.8-463.7,2131-465.9,2131-468.4z"/>
		<path class="st5" d="M2188.4-521c3-0.7,5.3-2.8,5.3-5.4c0-3.1-3.2-5.6-7.2-5.6c-4,0-7.2,2.5-7.2,5.6c0,2.6,2.2,4.7,5.3,5.4l0,25.8
			l-21,23.7l-0.1-76.3l8-8.7c3.4,1.2,7.5,0.4,9.8-2.1c2.6-2.8,1.9-6.8-1.7-8.9c-3.6-2.1-8.7-1.5-11.3,1.4c-2.2,2.4-2,5.6,0.3,7.8
			l-8.8,9.5l0,48.8l-28-12.5l0-37c3.6-0.7,6.2-3.2,6.2-6.2c0-3.5-3.6-6.4-8.1-6.4c-4.5,0-8.1,2.9-8.1,6.4c0,3,2.7,5.5,6.2,6.2
			l0,38.8l31.9,14.2l0,34.5l28.6-32.3L2188.4-521z M2169.8-565.2C2169.8-565.2,2169.8-565.2,2169.8-565.2
			C2169.8-565.2,2169.8-565.2,2169.8-565.2c2-2.2,5.9-2.6,8.7-1.1c2.8,1.6,3.4,4.6,1.3,6.8c-2,2.2-5.9,2.6-8.7,1
			C2168.4-559.9,2167.8-563,2169.8-565.2z M2123.6-555.6c0-2.7,2.8-4.9,6.2-4.9c3.4,0,6.2,2.2,6.2,4.9c0,2.7-2.8,4.9-6.2,4.9
			C2126.4-550.8,2123.6-552.9,2123.6-555.6z"/>
		<path class="st5" d="M2051.3-535.2c0,0-0.1-0.1-0.2-0.3C2051.2-535.4,2051.3-535.3,2051.3-535.2z"/>
		<path class="st5" d="M2050.6-536c0.2,0.2,0.3,0.3,0.4,0.4C2050.9-535.7,2050.7-535.9,2050.6-536z"/>
		<path class="st5" d="M2050.1-536.6c-0.1-0.2-0.2-0.2-0.3-0.3C2049.8-536.8,2049.9-536.7,2050.1-536.6z"/>
		<path class="st5" d="M2193.7-806.1c-4,0-7.2,2.5-7.2,5.6c0,3.1,3.2,5.6,7.2,5.6c3.3,0,6.1-1.7,6.9-4.1l22.9,0l0,14.9l-7.2,8.3
			c-3.4-1-7.4,0-9.5,2.5c-2.5,2.9-1.5,6.9,2.2,8.8c3.7,2,8.8,1.2,11.3-1.8c2.1-2.5,1.7-5.7-0.8-7.9l7.8-9.1l0-18.7l-26.7,0
			C2199.8-804.4,2197-806.1,2193.7-806.1z M2218.8-767.2c-1.9,2.2-5.8,2.8-8.6,1.4c-2.9-1.5-3.6-4.5-1.7-6.8c0.9-1.1,0.5-0.6,0,0
			c1.9-2.2,5.8-2.8,8.6-1.3C2219.9-772.4,2220.7-769.4,2218.8-767.2z"/>
		<path class="st5" d="M2646.8-697.6c-4,0-7.2,2.5-7.2,5.6c0,3.1,3.2,5.6,7.2,5.6c3.3,0,6.1-1.7,6.9-4.1l22.9,0l0,14.8l-7.2,8.3
			c-3.4-1-7.4,0-9.5,2.4c-2.5,2.9-1.5,6.9,2.3,8.8c3.7,1.9,8.8,1.2,11.2-1.8c2.1-2.5,1.7-5.8-0.8-7.9l6.8-8v-19.9l-25.7,0
			C2652.8-695.8,2650-697.6,2646.8-697.6z M2671.8-658.6c-1.9,2.2-5.8,2.8-8.6,1.3c-2.8-1.5-3.6-4.5-1.7-6.7c0,0,0,0,0,0
			c0,0,0,0,0,0c1.9-2.2,5.7-2.8,8.6-1.3C2672.9-663.9,2673.7-660.8,2671.8-658.6z"/>
		<path class="st5" d="M2197.2-914.1c-0.8-2.4-3.6-4.1-6.9-4.1c-4,0-7.2,2.5-7.2,5.6c0,3.1,3.2,5.6,7.2,5.6c3.3,0,6.1-1.8,6.9-4.1
			l22.9,0l0,14.9l-7.2,8.3c-3.4-1-7.4,0-9.5,2.4c-2.5,2.9-1.5,6.9,2.2,8.8c3.7,1.9,8.8,1.2,11.3-1.8c2.1-2.5,1.7-5.8-0.8-7.9
			l7.8-9.1l0-18.7L2197.2-914.1z M2215.3-879.3c-1.9,2.2-5.8,2.8-8.6,1.3c-2.8-1.5-3.6-4.5-1.8-6.7c0,0,0,0,0.1-0.1
			c1.9-2.2,5.8-2.8,8.6-1.3C2216.4-884.5,2217.2-881.5,2215.3-879.3z"/>
		<path class="st5" d="M2316.8-650.8c3.8,0,7-2.1,7.9-4.9l33.2,0l0.5-0.2l36.5-16.2c2.2,1.7,5.7,2.2,8.6,0.9
			c3.4-1.5,4.7-4.9,2.7-7.6c-1.9-2.7-6.3-3.6-9.8-2.1c-2.9,1.3-4.2,3.9-3.4,6.2l-36.1,16l-32.3,0c-0.9-2.8-4.1-4.9-7.9-4.9
			c-4.5,0-8.1,2.9-8.1,6.4C2308.7-653.6,2312.4-650.8,2316.8-650.8z M2316.8-662c3.4,0,6.2,2.2,6.2,4.9c0,2.7-2.8,4.9-6.2,4.9
			c-3.4,0-6.2-2.2-6.2-4.9C2310.6-659.8,2313.4-662,2316.8-662z"/>
		<path class="st5" d="M2261.9-744c-1.9-2.7-6.3-3.7-9.8-2.1c-3.5,1.5-4.7,4.9-2.7,7.6c1.6,2.2,4.9,3.3,8,2.7l20.4,28.2l0,25.3
			c-3.6,0.7-6.2,3.2-6.2,6.2c0,3.5,3.6,6.3,8.1,6.3c4.5,0,8.1-2.9,8.1-6.4c0-3-2.7-5.5-6.2-6.2l0-26l-0.2-0.4l-20.6-28.6
			C2263-739,2263.5-741.8,2261.9-744z M2285.9-676.2c0,2.7-2.8,4.9-6.2,4.9c-3.4,0-6.2-2.2-6.2-4.9c0-2.7,2.8-4.9,6.2-4.9
			C2283.1-681,2285.9-678.8,2285.9-676.2z"/>
		<path class="st5" d="M2338.6-673.6c0.8,2.4,3.6,4.1,6.9,4.1c4,0,7.2-2.5,7.2-5.6c0-3.1-3.2-5.6-7.2-5.6c-3.3,0-6.1,1.8-6.9,4.1
			l-33.2,0l-30.9,33.6c-2.9-0.9-6.4-0.1-8.3,2c-2.3,2.5-1.6,6,1.6,7.8c3.2,1.8,7.7,1.2,10-1.3c1.9-2.1,1.7-4.9-0.2-6.8l29.8-32.4
			L2338.6-673.6z"/>
		<path class="st5" d="M2303.4-708c0-3.1-3.2-5.6-7.2-5.6c-4,0-7.2,2.5-7.2,5.6c0,2.6,2.2,4.7,5.3,5.4l0,20.9l23.9,0l11.5-6.2
			c2.7,2,6.9,2.4,10.1,0.7c3.7-1.9,4.7-5.9,2.2-8.8c-2.5-2.9-7.5-3.7-11.3-1.7c-3.1,1.6-4.3,4.7-3.1,7.4l-10.6,5.7l-19,0l0-17.9
			C2301.2-703.2,2303.4-705.4,2303.4-708z M2331.9-696.5c2.9-1.5,6.7-0.9,8.6,1.3c1.9,2.2,1.1,5.2-1.7,6.7c-2.8,1.5-6.7,0.9-8.6-1.3
			C2328.3-692,2329.1-695,2331.9-696.5z"/>
		<path class="st5" d="M2370.1-708.2c0-3.1-3.2-5.6-7.2-5.6c-4,0-7.2,2.5-7.2,5.6c0,2.6,2.2,4.7,5.3,5.4l0,20.9l23.9,0l11.5-6.2
			c2.7,2,6.9,2.4,10.1,0.7c3.7-2,4.7-5.9,2.2-8.8c-2.5-2.9-7.5-3.7-11.3-1.7c-3.1,1.6-4.3,4.7-3.1,7.4l-10.6,5.7l-19,0l0-17.9
			C2367.9-703.5,2370.1-705.7,2370.1-708.2z M2398.6-696.8c2.9-1.5,6.7-0.9,8.6,1.3c1.9,2.2,1.1,5.3-1.7,6.7
			c-2.8,1.5-6.7,0.9-8.6-1.3C2395-692.3,2395.8-695.3,2398.6-696.8z"/>
		<path class="st5" d="M2640.3-554.6c3.7,1.9,8.8,1.2,11.3-1.7c2.5-2.9,1.5-6.9-2.2-8.8c-3.2-1.7-7.4-1.3-10.1,0.7l-11.5-6.2
			l-23.9,0l0,20.9c-3,0.6-5.3,2.8-5.3,5.4c0,3.1,3.2,5.6,7.2,5.6c4,0,7.2-2.5,7.2-5.6c0-2.6-2.2-4.7-5.3-5.4l0-17.9l19,0l10.6,5.7
			C2636-559.3,2637.2-556.3,2640.3-554.6z M2639.6-562.6c1.9-2.2,5.8-2.8,8.6-1.3c2.8,1.5,3.6,4.5,1.7,6.8c-1.9,2.2-5.8,2.8-8.6,1.3
			C2638.5-557.4,2637.7-560.4,2639.6-562.6z"/>
		<path class="st5" d="M2671.4-829.5l-10.6,5.7l-19,0l0-17.9c3-0.7,5.3-2.8,5.3-5.4c0-3.1-3.2-5.6-7.2-5.6c-4,0-7.2,2.5-7.2,5.6
			c0,2.6,2.2,4.7,5.3,5.4l0,20.9l23.9,0l11.5-6.2c1.6,1.2,3.7,1.8,5.9,1.7v-1.5c-2.1,0.1-4.2-0.7-5.5-2.1c-1.9-2.2-1.1-5.3,1.7-6.7
			c1.2-0.6,2.5-0.8,3.8-0.8v-1.5c-1.7,0-3.3,0.3-4.8,1.1C2671.4-835.3,2670.2-832.2,2671.4-829.5z"/>
		<path class="st5" d="M2659.1-498c0,3.1,3.2,5.6,7.2,5.6c4,0,7.2-2.5,7.2-5.6c0-2.6-2.2-4.7-5.3-5.4l0-20.9l-23.9,0l-11.5,6.2
			c-2.7-2-6.9-2.4-10.1-0.7c-3.7,1.9-4.7,5.9-2.2,8.8c2.5,2.9,7.5,3.7,11.3,1.8c3.1-1.6,4.3-4.7,3.1-7.4l10.6-5.7l19,0l0,17.9
			C2661.3-502.7,2659.1-500.6,2659.1-498z M2630.6-509.5c-2.9,1.5-6.7,0.9-8.6-1.3c-1.9-2.2-1.1-5.3,1.7-6.7
			c2.9-1.5,6.7-0.9,8.6,1.3C2634.2-514,2633.4-510.9,2630.6-509.5z"/>
		<path class="st5" d="M2218.9-720.2c-0.2,0.4-0.4,0.6-0.5,0.7C2218.5-719.6,2218.7-719.9,2218.9-720.2z"/>
		<path class="st5" d="M2219.5-721.1c0,0.1-0.1,0.2-0.3,0.5C2219.3-720.8,2219.4-721,2219.5-721.1z"/>
		<path class="st5" d="M2108.1-695.7l29.3,29.5l38,0l34.2-50.8c3.5,0.7,7.4-0.5,9.1-3.2c2.1-3.1,0.6-6.9-3.4-8.6
			c-4-1.6-8.9-0.4-11,2.7c-1.8,2.6-0.9,5.8,1.8,7.7l-33.2,49.2l-33.9,0l-26.5-26.7l16-18.6l38.7,0l16.8-24.1l8.4,0.1l-18,29.6
			l-42.6,0l-8.4,13.2l17.2,19.5l24.9,0l5-7.1c3.1,0.6,6.3-0.5,7.9-2.8c1.9-2.7,0.6-6.1-2.8-7.6c-3.5-1.5-7.8-0.5-9.7,2.2
			c-1.6,2.3-1,5,1.3,6.7l-3.9,5.6l-20.6,0l-14.8-16.8l6.3-10l42.6,0l19.8-32.5l21.4,0.3l16.2-17.5c2.9,0.9,6.4,0.1,8.3-2
			c2.3-2.5,1.6-6-1.6-7.8c-3.2-1.8-7.7-1.3-10,1.2c-1.9,2.1-1.8,4.9,0.2,6.8l-15.1,16.3l-34.3-0.5l-16.9,24.1l-38.5,0L2108.1-695.7z
			 M2206.2-725.4c1.6-2.4,5.4-3.3,8.4-2c3,1.3,4.2,4.2,2.6,6.6c-1.6,2.4-5.4,3.3-8.4,2C2205.8-720.1,2204.6-723,2206.2-725.4z"/>
		<path class="st5" d="M2227.5-1052.8l-15.1,16.3l-34.3-0.5l-16.9,24.1l-38.5,0l-18.7,21.7l29.3,29.5l38,0l34.3-50.8
			c3.5,0.7,7.4-0.5,9.1-3.2c2.1-3.1,0.6-7-3.4-8.6c-4-1.6-8.9-0.4-11,2.7c-1.8,2.6-0.9,5.8,1.8,7.7l-33.2,49.2l-33.9,0l-26.5-26.7
			l16-18.6l38.7,0l16.8-24.1l8.4,0.1l-18,29.6l-42.6,0l-8.4,13.2l17.2,19.5l24.9,0l5-7.1c3.1,0.6,6.3-0.5,7.9-2.8
			c1.9-2.7,0.6-6.1-2.8-7.6c-3.5-1.5-7.8-0.5-9.7,2.2c-1.6,2.3-1,5,1.3,6.7l-3.9,5.6l-20.6,0l-14.8-16.8l6.3-10l42.6,0l19.8-32.5
			l21.4,0.3l16.2-17.5c2.9,0.9,6.4,0.1,8.3-2c0.2-0.2,0.3-0.4,0.5-0.6c-4.4-0.5-8.8-0.9-13.2-1.3
			C2226.4-1054.2,2226.8-1053.4,2227.5-1052.8z M2202.2-1020.8c1.6-2.4,5.4-3.3,8.4-2c3,1.3,4.2,4.2,2.6,6.6c-1.6,2.4-5.4,3.3-8.4,2
			C2201.8-1015.5,2200.6-1018.5,2202.2-1020.8z"/>
		<path class="st5" d="M2237.3-1060.8c-3.2-1.8-7.7-1.3-10,1.2c-1.3,1.4-1.6,3.1-1.1,4.6c4.4,0.4,8.8,0.8,13.2,1.3
			C2241.1-1056,2240.2-1059.1,2237.3-1060.8z"/>
		<path class="st5" d="M2214.9-1015.6c0.3-0.4,0.5-0.8,0.6-0.9C2215.4-1016.4,2215.2-1016.2,2214.9-1015.6z"/>
		<path class="st5" d="M2214.9-1015.6c-0.2,0.3-0.4,0.6-0.5,0.7C2214.5-1015,2214.6-1015.2,2214.9-1015.6z"/>
		<path class="st5" d="M2246-722.1c1.9-2.7,0.7-6.1-2.7-7.6c-3.4-1.5-7.8-0.6-9.8,2.1c-1.6,2.2-1,5,1.2,6.7l-20.8,28.9l0,26.1
			c-3.6,0.7-6.2,3.2-6.2,6.2c0,3.5,3.6,6.4,8.1,6.4c4.5,0,8.1-2.9,8.1-6.4c0-3-2.7-5.5-6.2-6.2l0-25.3l20.3-28.3
			C2241.1-718.8,2244.4-719.8,2246-722.1z M2222-659.7c0,2.7-2.8,4.9-6.2,4.9c-3.4,0-6.2-2.2-6.2-4.9c0-2.7,2.8-4.9,6.2-4.9
			C2219.3-664.5,2222-662.4,2222-659.7z"/>
	</g>
</g>
<g>
	<path class="st2" d="M304.9,733.9L284,775.3l-17.8,0.2l2.4-215.2l0.3-38.4l67.2-96.7l-67.4-3L138.3,553c3.2,254.4,2,226,1.9,226.1
		l-73.1,100l499.9-2.8l87.2-140.6L304.9,733.9z"/>
	<polygon class="st2" points="1232.9,420.9 1009.3,422.2 1009,732.2 971.5,773 874,773.5 833.4,735.6 835.6,422.4 767.9,422.9 
		678.1,559.3 678,735.6 594.2,876.8 1067.1,875.9 1161.7,735.6 1163,565.9 	"/>
	<path class="st2" d="M259,579.6v135.2h395.1l0-135.2H527.9C274.7,580.4,259.1,579.6,259,579.6z"/>
	<path class="st2" d="M654.1,559.3l90.8-136c-275.6,0-425.9,1.4-425.9,1.4l-53.7,98.7H284l20.9,34.3L654.1,559.3z"/>
</g>
<image style="display:none;overflow:visible;" width="5418" height="5414" xlink:href="../../Library/Mobile Documents/com~apple~CloudDocs/Нова папка з елементами/LOL/circuit site/logo circuit.png"  transform="matrix(0.24 0 0 0.24 -1558.5365 -90.3503)">
</image>
<path class="st2" d="M286.2,472.5"/>
</svg>
